<svg width="427" height="384" viewBox="0 0 427 384" fill="none" xmlns="http://www.w3.org/2000/svg">
<g clip-path="url(#clip0_78_2430)">
<rect width="426.605" height="384" rx="12" fill="#F3F5F7"/>
<g filter="url(#filter0_d_78_2430)">
<rect x="-44" y="120" width="424.045" height="221.697" rx="19.9551" fill="white" shape-rendering="crispEdges"/>
<path d="M28.9084 174.89H23.8685V188.865H21.2531V174.89H16.202V172.702H28.9084V174.89ZM32.9405 177.236C33.7861 177.236 34.5494 177.375 35.2303 177.652C35.9188 177.929 36.5025 178.321 36.9814 178.83C37.4678 179.339 37.8419 179.957 38.1039 180.682C38.3658 181.408 38.4967 182.224 38.4967 183.129C38.4967 184.035 38.3658 184.851 38.1039 185.576C37.8419 186.302 37.4678 186.923 36.9814 187.44C36.5025 187.949 35.9188 188.341 35.2303 188.618C34.5494 188.895 33.7861 189.034 32.9405 189.034C32.0874 189.034 31.3166 188.895 30.6282 188.618C29.9472 188.341 29.3635 187.949 28.8771 187.44C28.3907 186.923 28.0166 186.302 27.7547 185.576C27.4928 184.851 27.3618 184.035 27.3618 183.129C27.3618 182.224 27.4928 181.408 27.7547 180.682C28.0166 179.957 28.3907 179.339 28.8771 178.83C29.3635 178.321 29.9472 177.929 30.6282 177.652C31.3166 177.375 32.0874 177.236 32.9405 177.236ZM32.9405 187.148C33.9732 187.148 34.7402 186.804 35.2416 186.115C35.7504 185.419 36.0048 184.428 36.0048 183.141C36.0048 181.854 35.7504 180.862 35.2416 180.166C34.7402 179.463 33.9732 179.111 32.9405 179.111C31.8928 179.111 31.1146 179.463 30.6057 180.166C30.0969 180.862 29.8425 181.854 29.8425 183.141C29.8425 184.428 30.0969 185.419 30.6057 186.115C31.1146 186.804 31.8928 187.148 32.9405 187.148ZM44.2668 189.045C43.3164 189.045 42.583 188.779 42.0667 188.248C41.5579 187.709 41.3034 186.953 41.3034 185.98V179.313H40.0463C39.9116 179.313 39.7956 179.272 39.6983 179.19C39.601 179.1 39.5524 178.969 39.5524 178.797V177.82L41.4044 177.551L41.932 174.239C41.9694 174.112 42.033 174.011 42.1228 173.936C42.2126 173.854 42.3324 173.813 42.482 173.813H43.7167V177.573H46.8933V179.313H43.7167V185.812C43.7167 186.224 43.8178 186.538 44.0198 186.755C44.2219 186.972 44.4912 187.081 44.828 187.081C45.0151 187.081 45.176 187.058 45.3107 187.013C45.4453 186.961 45.5613 186.908 45.6586 186.856C45.7559 186.796 45.8382 186.744 45.9056 186.699C45.9804 186.646 46.0515 186.62 46.1188 186.62C46.2535 186.62 46.362 186.695 46.4443 186.845L47.1627 188.023C46.7886 188.353 46.3471 188.607 45.8382 188.787C45.3294 188.959 44.8055 189.045 44.2668 189.045ZM54.913 183.859C54.0525 183.889 53.3266 183.96 52.7355 184.072C52.1443 184.177 51.6654 184.315 51.2987 184.488C50.932 184.652 50.6664 184.851 50.5017 185.083C50.3446 185.314 50.266 185.569 50.266 185.846C50.266 186.115 50.3072 186.347 50.3895 186.542C50.4793 186.729 50.599 186.886 50.7487 187.013C50.9058 187.133 51.0854 187.223 51.2875 187.283C51.497 187.335 51.7252 187.361 51.9722 187.361C52.6008 187.361 53.1395 187.245 53.5885 187.013C54.045 186.774 54.4865 186.429 54.913 185.98V183.859ZM48.515 179.01C49.8095 177.805 51.3511 177.203 53.1395 177.203C53.7981 177.203 54.3817 177.311 54.8906 177.528C55.4069 177.738 55.8372 178.037 56.1814 178.426C56.5331 178.815 56.7988 179.279 56.9784 179.818C57.1655 180.349 57.259 180.941 57.259 181.592V188.865H56.1814C55.9495 188.865 55.7736 188.832 55.6539 188.764C55.5341 188.689 55.4331 188.543 55.3508 188.326L55.1151 187.395C54.8233 187.657 54.5351 187.892 54.2508 188.102C53.9664 188.304 53.6708 188.476 53.364 188.618C53.0647 188.76 52.7392 188.865 52.3875 188.933C52.0433 189.007 51.6616 189.045 51.2426 189.045C50.7786 189.045 50.3446 188.981 49.9405 188.854C49.5439 188.727 49.1997 188.536 48.9078 188.282C48.616 188.02 48.384 187.698 48.2119 187.316C48.0473 186.935 47.9649 186.486 47.9649 185.969C47.9649 185.528 48.0809 185.097 48.3129 184.678C48.5524 184.259 48.9415 183.885 49.4803 183.556C50.0266 183.219 50.7412 182.942 51.6242 182.725C52.5147 182.508 53.611 182.385 54.913 182.355V181.592C54.913 180.768 54.7372 180.155 54.3855 179.751C54.0338 179.347 53.5174 179.145 52.8365 179.145C52.3725 179.145 51.9834 179.204 51.6691 179.324C51.3548 179.436 51.0817 179.56 50.8497 179.695C50.6177 179.829 50.4119 179.957 50.2323 180.076C50.0527 180.189 49.8619 180.245 49.6599 180.245C49.4953 180.245 49.3531 180.203 49.2333 180.121C49.1211 180.031 49.0276 179.923 48.9527 179.796L48.515 179.01ZM62.5443 172.253V188.865H60.131V172.253H62.5443ZM79.3703 182.804L77.1478 176.9C76.9682 176.443 76.7849 175.863 76.5978 175.16C76.5155 175.512 76.4257 175.837 76.3284 176.136C76.2311 176.428 76.1413 176.686 76.059 176.911L73.8365 182.804H79.3703ZM84.3429 188.865H82.3112C82.0792 188.865 81.8921 188.809 81.7499 188.697C81.6078 188.577 81.4993 188.431 81.4244 188.259L80.0775 184.69H73.1181L71.7712 188.259C71.7113 188.409 71.6065 188.547 71.4569 188.674C71.3072 188.802 71.1201 188.865 70.8956 188.865H68.864L75.2733 172.702H77.9335L84.3429 188.865ZM93.5662 179.661C93.4914 179.758 93.4203 179.833 93.353 179.885C93.2856 179.938 93.1883 179.964 93.0611 179.964C92.9339 179.964 92.7992 179.919 92.657 179.829C92.5223 179.74 92.3577 179.642 92.1631 179.537C91.9761 179.425 91.7478 179.324 91.4784 179.234C91.209 179.145 90.8723 179.1 90.4682 179.1C89.9444 179.1 89.4842 179.193 89.0876 179.38C88.6985 179.567 88.3692 179.837 88.0998 180.189C87.8379 180.533 87.6396 180.956 87.5049 181.457C87.3777 181.951 87.3141 182.508 87.3141 183.129C87.3141 183.773 87.3852 184.345 87.5273 184.847C87.6695 185.348 87.8716 185.771 88.1335 186.115C88.4029 186.459 88.7246 186.721 89.0988 186.901C89.4804 187.081 89.907 187.17 90.3784 187.17C90.8424 187.17 91.2203 187.114 91.5121 187.002C91.804 186.89 92.0472 186.766 92.2417 186.632C92.4363 186.497 92.6009 186.373 92.7356 186.261C92.8778 186.149 93.0275 186.093 93.1846 186.093C93.3792 186.093 93.5288 186.168 93.6336 186.317L94.3183 187.204C94.0414 187.541 93.7346 187.825 93.3979 188.057C93.0611 188.289 92.7057 188.48 92.3315 188.63C91.9574 188.772 91.5682 188.873 91.1641 188.933C90.7601 189 90.3522 189.034 89.9407 189.034C89.2298 189.034 88.5638 188.903 87.9427 188.641C87.329 188.371 86.7902 187.986 86.3263 187.485C85.8698 186.976 85.5069 186.358 85.2375 185.633C84.9756 184.899 84.8446 184.065 84.8446 183.129C84.8446 182.284 84.9644 181.502 85.2038 180.783C85.4433 180.058 85.7912 179.433 86.2477 178.909C86.7117 178.385 87.2841 177.977 87.9651 177.685C88.6461 177.386 89.4318 177.236 90.3223 177.236C91.1529 177.236 91.8825 177.371 92.5111 177.641C93.1472 177.91 93.7122 178.292 94.206 178.785L93.5662 179.661ZM107.372 188.865H104.959V179.313H99.3799V185.812C99.3799 186.224 99.481 186.538 99.683 186.755C99.8851 186.972 100.154 187.081 100.491 187.081C100.678 187.081 100.839 187.058 100.974 187.013C101.109 186.961 101.225 186.908 101.322 186.856C101.419 186.796 101.501 186.744 101.569 186.699C101.644 186.646 101.715 186.62 101.782 186.62C101.917 186.62 102.025 186.695 102.108 186.845L102.826 188.023C102.452 188.353 102.01 188.607 101.501 188.787C100.993 188.959 100.469 189.045 99.93 189.045C98.9796 189.045 98.2462 188.779 97.7299 188.248C97.2211 187.709 96.9666 186.953 96.9666 185.98V179.313H95.7095C95.5748 179.313 95.4588 179.272 95.3615 179.19C95.2642 179.1 95.2156 178.969 95.2156 178.797V177.82L97.0676 177.551L97.5952 174.239C97.6326 174.112 97.6962 174.011 97.786 173.936C97.8758 173.854 97.9956 173.813 98.1452 173.813H99.3799V177.573H107.372V188.865ZM107.866 173.903C107.866 174.12 107.821 174.325 107.731 174.52C107.649 174.707 107.533 174.875 107.383 175.025C107.234 175.167 107.058 175.283 106.856 175.373C106.661 175.455 106.455 175.497 106.238 175.497C106.021 175.497 105.815 175.455 105.621 175.373C105.434 175.283 105.265 175.167 105.116 175.025C104.974 174.875 104.858 174.707 104.768 174.52C104.685 174.325 104.644 174.12 104.644 173.903C104.644 173.678 104.685 173.469 104.768 173.274C104.858 173.072 104.974 172.9 105.116 172.758C105.265 172.608 105.434 172.492 105.621 172.41C105.815 172.32 106.021 172.275 106.238 172.275C106.455 172.275 106.661 172.32 106.856 172.41C107.058 172.492 107.234 172.608 107.383 172.758C107.533 172.9 107.649 173.072 107.731 173.274C107.821 173.469 107.866 173.678 107.866 173.903ZM120.502 177.416L115.9 188.865H113.722L109.12 177.416H111.107C111.294 177.416 111.447 177.465 111.567 177.562C111.694 177.652 111.776 177.76 111.814 177.887L114.351 184.555C114.455 184.869 114.549 185.18 114.631 185.487C114.713 185.793 114.785 186.104 114.844 186.418C114.904 186.104 114.975 185.797 115.058 185.498C115.148 185.191 115.245 184.877 115.35 184.555L117.931 177.887C117.976 177.753 118.058 177.641 118.178 177.551C118.298 177.461 118.444 177.416 118.616 177.416H120.502ZM129.331 181.85C129.331 181.446 129.271 181.072 129.152 180.727C129.04 180.376 128.871 180.073 128.647 179.818C128.422 179.556 128.142 179.354 127.805 179.212C127.476 179.062 127.094 178.987 126.66 178.987C125.784 178.987 125.096 179.238 124.595 179.74C124.093 180.241 123.775 180.944 123.64 181.85H129.331ZM123.573 183.331C123.603 183.982 123.704 184.547 123.876 185.026C124.048 185.498 124.276 185.891 124.561 186.205C124.853 186.519 125.197 186.755 125.594 186.912C125.998 187.062 126.447 187.137 126.94 187.137C127.412 187.137 127.82 187.084 128.164 186.979C128.508 186.867 128.808 186.748 129.062 186.62C129.316 186.486 129.533 186.366 129.713 186.261C129.893 186.149 130.057 186.093 130.207 186.093C130.401 186.093 130.551 186.168 130.656 186.317L131.341 187.204C131.056 187.541 130.734 187.825 130.375 188.057C130.016 188.289 129.634 188.48 129.23 188.63C128.826 188.772 128.411 188.873 127.984 188.933C127.558 189 127.143 189.034 126.738 189.034C125.945 189.034 125.208 188.903 124.527 188.641C123.854 188.371 123.266 187.978 122.765 187.462C122.271 186.946 121.882 186.306 121.598 185.543C121.321 184.779 121.182 183.9 121.182 182.905C121.182 182.112 121.306 181.371 121.553 180.682C121.807 179.994 122.166 179.395 122.63 178.886C123.102 178.378 123.67 177.977 124.336 177.685C125.01 177.386 125.769 177.236 126.615 177.236C127.318 177.236 127.969 177.352 128.568 177.584C129.167 177.809 129.683 178.142 130.117 178.583C130.551 179.025 130.888 179.567 131.127 180.211C131.374 180.847 131.498 181.573 131.498 182.389C131.498 182.763 131.457 183.013 131.374 183.141C131.292 183.268 131.142 183.331 130.925 183.331H123.573ZM151.012 185.262C151.155 185.262 151.278 185.318 151.383 185.43L152.427 186.564C151.768 187.357 150.96 187.971 150.002 188.405C149.044 188.832 147.899 189.045 146.567 189.045C145.385 189.045 144.315 188.843 143.357 188.439C142.407 188.027 141.595 187.458 140.921 186.733C140.248 185.999 139.728 185.127 139.361 184.117C139.002 183.107 138.822 181.996 138.822 180.783C138.822 179.571 139.013 178.46 139.395 177.45C139.784 176.432 140.326 175.56 141.022 174.834C141.726 174.101 142.564 173.532 143.537 173.128C144.517 172.724 145.595 172.522 146.769 172.522C147.937 172.522 148.966 172.713 149.856 173.095C150.754 173.469 151.532 173.97 152.191 174.599L151.327 175.822C151.267 175.904 151.196 175.976 151.113 176.035C151.031 176.095 150.919 176.125 150.777 176.125C150.627 176.125 150.455 176.058 150.26 175.923C150.073 175.781 149.83 175.628 149.531 175.463C149.239 175.291 148.868 175.137 148.42 175.003C147.978 174.861 147.424 174.789 146.758 174.789C145.987 174.789 145.28 174.924 144.637 175.194C143.993 175.463 143.439 175.856 142.976 176.372C142.512 176.888 142.149 177.517 141.887 178.258C141.632 178.999 141.505 179.841 141.505 180.783C141.505 181.734 141.64 182.583 141.909 183.331C142.179 184.072 142.549 184.701 143.02 185.217C143.492 185.726 144.046 186.115 144.682 186.385C145.318 186.654 146.002 186.789 146.736 186.789C147.185 186.789 147.585 186.766 147.937 186.721C148.296 186.669 148.625 186.59 148.925 186.486C149.224 186.373 149.505 186.235 149.766 186.07C150.036 185.906 150.302 185.704 150.563 185.464C150.713 185.329 150.863 185.262 151.012 185.262ZM163.724 177.416V188.865H162.265C161.943 188.865 161.738 188.712 161.648 188.405L161.468 187.339C161.229 187.593 160.974 187.825 160.705 188.035C160.443 188.244 160.162 188.424 159.863 188.573C159.564 188.723 159.242 188.839 158.898 188.921C158.561 189.004 158.198 189.045 157.809 189.045C157.18 189.045 156.627 188.94 156.148 188.731C155.669 188.521 155.265 188.225 154.935 187.844C154.614 187.462 154.37 187.006 154.206 186.474C154.041 185.936 153.959 185.344 153.959 184.701V177.416H156.372V184.701C156.372 185.472 156.548 186.07 156.9 186.497C157.259 186.923 157.802 187.137 158.527 187.137C159.059 187.137 159.553 187.017 160.009 186.777C160.473 186.53 160.907 186.194 161.311 185.767V177.416H163.724ZM173.491 179.493C173.431 179.597 173.364 179.672 173.289 179.717C173.214 179.762 173.121 179.784 173.008 179.784C172.881 179.784 172.743 179.747 172.593 179.672C172.443 179.59 172.267 179.5 172.065 179.403C171.863 179.306 171.624 179.219 171.347 179.145C171.078 179.062 170.76 179.021 170.393 179.021C170.094 179.021 169.82 179.059 169.574 179.133C169.334 179.201 169.128 179.302 168.956 179.436C168.792 179.564 168.664 179.717 168.575 179.897C168.485 180.069 168.44 180.256 168.44 180.458C168.44 180.727 168.522 180.952 168.687 181.131C168.851 181.311 169.068 181.468 169.338 181.603C169.607 181.73 169.914 181.846 170.258 181.951C170.602 182.056 170.954 182.168 171.313 182.288C171.673 182.407 172.024 182.546 172.368 182.703C172.713 182.86 173.02 183.055 173.289 183.287C173.558 183.511 173.775 183.788 173.94 184.117C174.105 184.439 174.187 184.832 174.187 185.296C174.187 185.835 174.09 186.332 173.895 186.789C173.7 187.245 173.416 187.642 173.042 187.978C172.668 188.315 172.2 188.577 171.639 188.764C171.085 188.951 170.449 189.045 169.731 189.045C169.334 189.045 168.949 189.007 168.575 188.933C168.208 188.865 167.856 188.772 167.519 188.652C167.19 188.525 166.88 188.375 166.588 188.203C166.303 188.031 166.049 187.844 165.824 187.642L166.386 186.721C166.453 186.609 166.535 186.523 166.633 186.463C166.737 186.396 166.865 186.362 167.014 186.362C167.171 186.362 167.325 186.415 167.475 186.519C167.632 186.617 167.811 186.725 168.013 186.845C168.223 186.965 168.474 187.077 168.765 187.182C169.057 187.279 169.42 187.327 169.854 187.327C170.213 187.327 170.524 187.286 170.786 187.204C171.048 187.114 171.265 186.994 171.437 186.845C171.609 186.695 171.736 186.527 171.818 186.34C171.901 186.145 171.942 185.939 171.942 185.722C171.942 185.43 171.86 185.191 171.695 185.004C171.53 184.817 171.31 184.656 171.033 184.521C170.763 184.387 170.453 184.267 170.101 184.162C169.757 184.057 169.405 183.945 169.046 183.825C168.687 183.706 168.331 183.567 167.98 183.41C167.635 183.253 167.325 183.055 167.048 182.815C166.779 182.568 166.562 182.273 166.397 181.928C166.232 181.577 166.15 181.15 166.15 180.649C166.15 180.192 166.24 179.758 166.419 179.347C166.606 178.935 166.876 178.572 167.228 178.258C167.587 177.944 168.025 177.697 168.541 177.517C169.065 177.33 169.667 177.236 170.348 177.236C171.119 177.236 171.818 177.36 172.447 177.607C173.076 177.854 173.603 178.191 174.03 178.617L173.491 179.493ZM180.125 189.045C179.175 189.045 178.442 188.779 177.925 188.248C177.416 187.709 177.162 186.953 177.162 185.98V179.313H175.905C175.77 179.313 175.654 179.272 175.557 179.19C175.46 179.1 175.411 178.969 175.411 178.797V177.82L177.263 177.551L177.791 174.239C177.828 174.112 177.892 174.011 177.981 173.936C178.071 173.854 178.191 173.813 178.341 173.813H179.575V177.573H182.752V179.313H179.575V185.812C179.575 186.224 179.676 186.538 179.878 186.755C180.08 186.972 180.35 187.081 180.687 187.081C180.874 187.081 181.035 187.058 181.169 187.013C181.304 186.961 181.42 186.908 181.517 186.856C181.614 186.796 181.697 186.744 181.764 186.699C181.839 186.646 181.91 186.62 181.977 186.62C182.112 186.62 182.221 186.695 182.303 186.845L183.021 188.023C182.647 188.353 182.206 188.607 181.697 188.787C181.188 188.959 180.664 189.045 180.125 189.045ZM189.517 177.236C190.362 177.236 191.125 177.375 191.806 177.652C192.495 177.929 193.079 178.321 193.557 178.83C194.044 179.339 194.418 179.957 194.68 180.682C194.942 181.408 195.073 182.224 195.073 183.129C195.073 184.035 194.942 184.851 194.68 185.576C194.418 186.302 194.044 186.923 193.557 187.44C193.079 187.949 192.495 188.341 191.806 188.618C191.125 188.895 190.362 189.034 189.517 189.034C188.663 189.034 187.893 188.895 187.204 188.618C186.523 188.341 185.94 187.949 185.453 187.44C184.967 186.923 184.593 186.302 184.331 185.576C184.069 184.851 183.938 184.035 183.938 183.129C183.938 182.224 184.069 181.408 184.331 180.682C184.593 179.957 184.967 179.339 185.453 178.83C185.94 178.321 186.523 177.929 187.204 177.652C187.893 177.375 188.663 177.236 189.517 177.236ZM189.517 187.148C190.549 187.148 191.316 186.804 191.818 186.115C192.326 185.419 192.581 184.428 192.581 183.141C192.581 181.854 192.326 180.862 191.818 180.166C191.316 179.463 190.549 179.111 189.517 179.111C188.469 179.111 187.691 179.463 187.182 180.166C186.673 180.862 186.419 181.854 186.419 183.141C186.419 184.428 186.673 185.419 187.182 186.115C187.691 186.804 188.469 187.148 189.517 187.148ZM197.392 188.865V177.416H198.851C199.18 177.416 199.39 177.569 199.479 177.876L199.636 178.875C199.846 178.636 200.063 178.419 200.288 178.224C200.512 178.022 200.751 177.85 201.006 177.708C201.268 177.558 201.545 177.442 201.837 177.36C202.136 177.278 202.458 177.236 202.802 177.236C203.169 177.236 203.505 177.289 203.812 177.394C204.119 177.498 204.388 177.648 204.62 177.843C204.86 178.037 205.066 178.273 205.238 178.55C205.41 178.827 205.552 179.137 205.664 179.481C205.836 179.085 206.053 178.744 206.315 178.46C206.577 178.176 206.869 177.944 207.191 177.764C207.513 177.584 207.853 177.453 208.212 177.371C208.579 177.281 208.949 177.236 209.323 177.236C209.937 177.236 210.483 177.334 210.962 177.528C211.449 177.723 211.856 178.007 212.186 178.381C212.522 178.748 212.777 179.201 212.949 179.74C213.121 180.278 213.207 180.892 213.207 181.58V188.865H210.794V181.58C210.794 180.772 210.618 180.166 210.266 179.762C209.922 179.35 209.409 179.145 208.729 179.145C208.422 179.145 208.134 179.197 207.864 179.302C207.595 179.407 207.359 179.56 207.157 179.762C206.955 179.964 206.794 180.218 206.674 180.525C206.562 180.825 206.506 181.176 206.506 181.58V188.865H204.093V181.58C204.093 180.742 203.924 180.129 203.588 179.74C203.251 179.343 202.757 179.145 202.106 179.145C201.657 179.145 201.242 179.261 200.86 179.493C200.478 179.717 200.127 180.028 199.805 180.424V188.865H197.392ZM223.536 181.85C223.536 181.446 223.476 181.072 223.356 180.727C223.244 180.376 223.075 180.073 222.851 179.818C222.626 179.556 222.346 179.354 222.009 179.212C221.68 179.062 221.298 178.987 220.864 178.987C219.989 178.987 219.3 179.238 218.799 179.74C218.297 180.241 217.979 180.944 217.845 181.85H223.536ZM217.777 183.331C217.807 183.982 217.908 184.547 218.08 185.026C218.253 185.498 218.481 185.891 218.765 186.205C219.057 186.519 219.401 186.755 219.798 186.912C220.202 187.062 220.651 187.137 221.145 187.137C221.616 187.137 222.024 187.084 222.368 186.979C222.713 186.867 223.012 186.748 223.266 186.62C223.521 186.486 223.738 186.366 223.917 186.261C224.097 186.149 224.262 186.093 224.411 186.093C224.606 186.093 224.755 186.168 224.86 186.317L225.545 187.204C225.261 187.541 224.939 187.825 224.58 188.057C224.22 188.289 223.839 188.48 223.435 188.63C223.031 188.772 222.615 188.873 222.189 188.933C221.762 189 221.347 189.034 220.943 189.034C220.15 189.034 219.412 188.903 218.731 188.641C218.058 188.371 217.471 187.978 216.969 187.462C216.475 186.946 216.086 186.306 215.802 185.543C215.525 184.779 215.387 183.9 215.387 182.905C215.387 182.112 215.51 181.371 215.757 180.682C216.011 179.994 216.371 179.395 216.835 178.886C217.306 178.378 217.875 177.977 218.541 177.685C219.214 177.386 219.974 177.236 220.819 177.236C221.523 177.236 222.174 177.352 222.772 177.584C223.371 177.809 223.887 178.142 224.321 178.583C224.755 179.025 225.092 179.567 225.332 180.211C225.579 180.847 225.702 181.573 225.702 182.389C225.702 182.763 225.661 183.013 225.579 183.141C225.496 183.268 225.347 183.331 225.13 183.331H217.777ZM230.231 179.537C230.59 178.812 231.024 178.243 231.533 177.831C232.042 177.412 232.652 177.203 233.363 177.203C233.61 177.203 233.842 177.233 234.059 177.293C234.276 177.345 234.47 177.427 234.643 177.539L234.474 179.358C234.444 179.485 234.396 179.575 234.328 179.627C234.268 179.672 234.186 179.695 234.081 179.695C233.969 179.695 233.808 179.676 233.599 179.639C233.389 179.594 233.168 179.571 232.936 179.571C232.6 179.571 232.3 179.62 232.038 179.717C231.784 179.814 231.552 179.957 231.342 180.144C231.14 180.331 230.961 180.559 230.804 180.828C230.647 181.098 230.501 181.405 230.366 181.749V188.865H227.953V177.416H229.356C229.61 177.416 229.786 177.465 229.883 177.562C229.981 177.652 230.048 177.813 230.085 178.045L230.231 179.537Z" fill="#6C757D"/>
<rect x="290.247" y="149.933" width="59.8652" height="59.8652" rx="9.97753" fill="#2E86C1" fill-opacity="0.1"/>
<path d="M333.275 185.685V174.045C333.274 173.535 333.14 173.033 332.884 172.592C332.629 172.15 332.262 171.783 331.82 171.528L321.635 165.708C321.192 165.452 320.69 165.318 320.179 165.318C319.669 165.318 319.167 165.452 318.724 165.708L308.539 171.528C308.097 171.783 307.73 172.15 307.475 172.592C307.219 173.033 307.085 173.535 307.084 174.045V185.685C307.085 186.196 307.219 186.697 307.475 187.139C307.73 187.581 308.097 187.948 308.539 188.203L318.724 194.023C319.167 194.278 319.669 194.413 320.179 194.413C320.69 194.413 321.192 194.278 321.635 194.023L331.82 188.203C332.262 187.948 332.629 187.581 332.884 187.139C333.14 186.697 333.274 186.196 333.275 185.685Z" stroke="#2E86C1" stroke-width="2.49438" stroke-linecap="round" stroke-linejoin="round"/>
<path d="M307.477 172.532L320.179 179.88L332.882 172.532" stroke="#2E86C1" stroke-width="2.49438" stroke-linecap="round" stroke-linejoin="round"/>
<path d="M320.18 194.532V179.865" stroke="#2E86C1" stroke-width="2.49438" stroke-linecap="round" stroke-linejoin="round"/>
<path d="M31.3553 241.029V243.798H19.3823V241.029H23.7674V228.412C23.7674 227.914 23.7824 227.4 23.8123 226.871L20.6993 229.475C20.5198 229.615 20.3402 229.704 20.1606 229.744C19.9909 229.774 19.8263 229.774 19.6667 229.744C19.517 229.714 19.3823 229.665 19.2626 229.595C19.1429 229.515 19.0531 229.43 18.9932 229.34L17.8258 227.739L24.426 222.127H27.4641V241.029H31.3553ZM39.3048 230.014C39.7837 229.914 40.2427 229.844 40.6817 229.804C41.1207 229.754 41.5447 229.729 41.9538 229.729C43.0913 229.729 44.094 229.899 44.962 230.238C45.8301 230.578 46.5584 231.046 47.1471 231.645C47.7358 232.244 48.1798 232.947 48.4791 233.755C48.7784 234.554 48.9281 235.417 48.9281 236.345C48.9281 237.492 48.7236 238.54 48.3145 239.487C47.9154 240.435 47.3567 241.248 46.6383 241.927C45.9199 242.595 45.0668 243.114 44.079 243.483C43.1012 243.853 42.0336 244.037 40.8762 244.037C40.1978 244.037 39.5542 243.967 38.9456 243.828C38.337 243.688 37.7633 243.503 37.2245 243.274C36.6957 243.034 36.2018 242.765 35.7428 242.466C35.2938 242.156 34.8897 241.832 34.5305 241.493L35.668 239.921C35.9074 239.582 36.2217 239.413 36.6109 239.413C36.8603 239.413 37.1147 239.492 37.3741 239.652C37.6336 239.812 37.9279 239.986 38.2571 240.176C38.5964 240.365 38.9905 240.54 39.4395 240.7C39.8984 240.859 40.4472 240.939 41.0858 240.939C41.7642 240.939 42.3629 240.829 42.8817 240.61C43.4006 240.39 43.8296 240.086 44.1688 239.697C44.518 239.298 44.7775 238.829 44.9471 238.29C45.1267 237.741 45.2165 237.148 45.2165 236.509C45.2165 235.332 44.8722 234.414 44.1838 233.755C43.5053 233.087 42.4976 232.753 41.1606 232.753C40.1329 232.753 39.0803 232.942 38.0027 233.321L35.6979 232.663L37.4939 222.156H48.1798V223.728C48.1798 224.257 48.0152 224.686 47.6859 225.015C47.3567 225.344 46.7979 225.509 46.0097 225.509H40.0681L39.3048 230.014Z" fill="#002A5E"/>
<rect x="65.8311" y="216.809" width="76.9775" height="30.9775" rx="4.98876" fill="#28A745" fill-opacity="0.1"/>
<path d="M82.3521 230.259L81.8021 230.801C81.6857 230.917 81.5693 230.964 81.4529 230.94C81.3365 230.911 81.2259 230.844 81.1211 230.74L78.6243 228.251C78.3449 227.972 78.1208 227.719 77.952 227.492C77.9869 227.789 78.016 228.1 78.0393 228.426C78.0626 228.746 78.0742 229.078 78.0742 229.421V240.771H76.6599V229.421C76.6599 229.078 76.6716 228.746 76.6949 228.426C76.7181 228.1 76.7501 227.789 76.7909 227.492C76.6978 227.608 76.5959 227.731 76.4853 227.859C76.3747 227.981 76.2525 228.112 76.1187 228.251L73.6043 230.757C73.4995 230.862 73.389 230.929 73.2726 230.958C73.1562 230.981 73.0398 230.935 72.9233 230.818L72.3733 230.277L77.3758 225.283L82.3521 230.259ZM97.2698 237.61V238.798H90.5649V237.61H93.2451V229.081C93.2451 228.825 93.2538 228.566 93.2713 228.304L91.0451 230.216C90.9694 230.28 90.8937 230.321 90.8181 230.338C90.7424 230.35 90.6726 230.35 90.6086 230.338C90.5445 230.326 90.4834 230.303 90.4252 230.268C90.3728 230.233 90.3321 230.195 90.303 230.155L89.8141 229.482L93.5419 226.261H94.8078V237.61H97.2698ZM99.4799 237.837C99.4799 237.686 99.5061 237.543 99.5585 237.41C99.6167 237.276 99.6924 237.159 99.7855 237.06C99.8844 236.961 100.001 236.883 100.135 236.825C100.269 236.766 100.411 236.737 100.563 236.737C100.714 236.737 100.856 236.766 100.99 236.825C101.124 236.883 101.241 236.961 101.34 237.06C101.438 237.159 101.517 237.276 101.575 237.41C101.633 237.543 101.663 237.686 101.663 237.837C101.663 237.995 101.633 238.14 101.575 238.274C101.517 238.402 101.438 238.515 101.34 238.614C101.241 238.713 101.124 238.789 100.99 238.841C100.856 238.9 100.714 238.929 100.563 238.929C100.411 238.929 100.269 238.9 100.135 238.841C100.001 238.789 99.8844 238.713 99.7855 238.614C99.6924 238.515 99.6167 238.402 99.5585 238.274C99.5061 238.14 99.4799 237.995 99.4799 237.837ZM111.254 237.322C111.423 237.322 111.557 237.372 111.656 237.471C111.755 237.57 111.804 237.698 111.804 237.855V238.798H103.458V238.265C103.458 238.155 103.481 238.041 103.528 237.925C103.574 237.808 103.647 237.701 103.746 237.602L107.753 233.577C108.085 233.239 108.388 232.916 108.661 232.608C108.935 232.294 109.168 231.979 109.36 231.665C109.552 231.351 109.7 231.034 109.805 230.713C109.91 230.388 109.962 230.041 109.962 229.675C109.962 229.308 109.904 228.988 109.787 228.714C109.671 228.435 109.511 228.205 109.307 228.024C109.109 227.844 108.874 227.71 108.6 227.623C108.327 227.53 108.033 227.483 107.718 227.483C107.398 227.483 107.104 227.53 106.837 227.623C106.569 227.716 106.33 227.847 106.121 228.016C105.917 228.179 105.745 228.374 105.606 228.601C105.466 228.828 105.367 229.078 105.309 229.352C105.239 229.555 105.143 229.692 105.021 229.762C104.904 229.826 104.738 229.843 104.523 229.814L103.711 229.675C103.793 229.104 103.95 228.601 104.183 228.164C104.421 227.722 104.718 227.352 105.073 227.055C105.434 226.759 105.844 226.535 106.304 226.383C106.764 226.226 107.261 226.147 107.797 226.147C108.327 226.147 108.821 226.226 109.281 226.383C109.741 226.54 110.14 226.77 110.477 227.073C110.815 227.37 111.08 227.733 111.272 228.164C111.464 228.595 111.56 229.084 111.56 229.631C111.56 230.096 111.49 230.53 111.35 230.932C111.211 231.327 111.021 231.706 110.783 232.067C110.544 232.427 110.268 232.78 109.953 233.123C109.645 233.466 109.316 233.813 108.967 234.162L105.667 237.532C105.9 237.468 106.135 237.418 106.374 237.383C106.613 237.343 106.842 237.322 107.064 237.322H111.254ZM115.926 231.01C116.578 230.871 117.178 230.801 117.725 230.801C118.377 230.801 118.953 230.897 119.453 231.089C119.954 231.281 120.37 231.546 120.702 231.883C121.039 232.221 121.293 232.62 121.461 233.079C121.636 233.539 121.723 234.04 121.723 234.581C121.723 235.244 121.607 235.844 121.374 236.379C121.147 236.915 120.83 237.375 120.422 237.759C120.021 238.137 119.546 238.428 118.999 238.632C118.452 238.836 117.861 238.937 117.227 238.937C116.86 238.937 116.508 238.9 116.171 238.824C115.833 238.754 115.516 238.658 115.219 238.536C114.928 238.414 114.657 238.274 114.407 238.117C114.157 237.96 113.936 237.794 113.744 237.619L114.224 236.956C114.329 236.804 114.465 236.729 114.634 236.729C114.751 236.729 114.882 236.775 115.027 236.868C115.173 236.956 115.35 237.055 115.56 237.165C115.769 237.276 116.014 237.378 116.293 237.471C116.578 237.558 116.916 237.602 117.306 237.602C117.742 237.602 118.135 237.532 118.484 237.392C118.833 237.252 119.133 237.055 119.383 236.798C119.634 236.537 119.826 236.225 119.96 235.864C120.094 235.503 120.16 235.099 120.16 234.651C120.16 234.261 120.102 233.909 119.986 233.594C119.875 233.28 119.704 233.012 119.471 232.791C119.244 232.57 118.959 232.398 118.615 232.276C118.272 232.154 117.87 232.093 117.41 232.093C117.096 232.093 116.767 232.119 116.424 232.171C116.086 232.224 115.74 232.308 115.385 232.425L114.407 232.136L115.411 226.287H121.339V226.968C121.339 227.189 121.269 227.373 121.13 227.518C120.996 227.658 120.763 227.728 120.431 227.728H116.502L115.926 231.01ZM129.198 229.308C129.198 229.797 129.122 230.236 128.971 230.626C128.819 231.01 128.616 231.336 128.36 231.604C128.109 231.866 127.815 232.067 127.478 232.206C127.146 232.346 126.794 232.416 126.421 232.416C126.032 232.416 125.668 232.346 125.33 232.206C124.993 232.067 124.699 231.866 124.448 231.604C124.204 231.336 124.012 231.01 123.872 230.626C123.733 230.236 123.663 229.797 123.663 229.308C123.663 228.807 123.733 228.362 123.872 227.972C124.012 227.582 124.204 227.253 124.448 226.986C124.699 226.718 124.993 226.514 125.33 226.374C125.668 226.235 126.032 226.165 126.421 226.165C126.817 226.165 127.184 226.235 127.522 226.374C127.859 226.514 128.153 226.718 128.403 226.986C128.654 227.253 128.849 227.582 128.988 227.972C129.128 228.362 129.198 228.807 129.198 229.308ZM127.993 229.308C127.993 228.924 127.952 228.598 127.871 228.33C127.789 228.062 127.676 227.844 127.53 227.675C127.391 227.501 127.225 227.376 127.033 227.3C126.841 227.224 126.637 227.186 126.421 227.186C126.206 227.186 126.005 227.224 125.819 227.3C125.633 227.376 125.47 227.501 125.33 227.675C125.191 227.844 125.08 228.062 124.998 228.33C124.917 228.598 124.876 228.924 124.876 229.308C124.876 229.686 124.917 230.009 124.998 230.277C125.08 230.539 125.191 230.754 125.33 230.923C125.47 231.086 125.633 231.205 125.819 231.281C126.005 231.351 126.206 231.386 126.421 231.386C126.637 231.386 126.841 231.351 127.033 231.281C127.225 231.205 127.391 231.086 127.53 230.923C127.676 230.754 127.789 230.539 127.871 230.277C127.952 230.009 127.993 229.686 127.993 229.308ZM133.624 226.549C133.682 226.479 133.749 226.418 133.825 226.366C133.906 226.313 134.014 226.287 134.148 226.287H135.274L126.125 238.545C126.072 238.62 126.005 238.681 125.924 238.728C125.842 238.774 125.743 238.798 125.627 238.798H124.483L133.624 226.549ZM136.121 235.847C136.121 236.336 136.045 236.772 135.894 237.156C135.743 237.541 135.539 237.866 135.283 238.134C135.033 238.396 134.739 238.597 134.401 238.737C134.069 238.876 133.717 238.946 133.345 238.946C132.949 238.946 132.582 238.876 132.245 238.737C131.913 238.597 131.622 238.396 131.372 238.134C131.127 237.866 130.935 237.541 130.795 237.156C130.656 236.772 130.586 236.336 130.586 235.847C130.586 235.346 130.656 234.901 130.795 234.511C130.935 234.115 131.127 233.784 131.372 233.516C131.622 233.248 131.913 233.044 132.245 232.905C132.582 232.765 132.949 232.695 133.345 232.695C133.735 232.695 134.098 232.765 134.436 232.905C134.779 233.044 135.073 233.248 135.318 233.516C135.568 233.784 135.763 234.115 135.903 234.511C136.048 234.901 136.121 235.346 136.121 235.847ZM134.916 235.847C134.916 235.463 134.875 235.137 134.794 234.869C134.712 234.596 134.599 234.374 134.453 234.206C134.314 234.037 134.148 233.915 133.956 233.839C133.764 233.763 133.56 233.725 133.345 233.725C133.129 233.725 132.926 233.763 132.734 233.839C132.547 233.915 132.384 234.037 132.245 234.206C132.105 234.374 131.994 234.596 131.913 234.869C131.837 235.137 131.799 235.463 131.799 235.847C131.799 236.225 131.837 236.545 131.913 236.807C131.994 237.069 132.105 237.284 132.245 237.453C132.384 237.616 132.547 237.736 132.734 237.811C132.926 237.881 133.129 237.916 133.345 237.916C133.56 237.916 133.764 237.881 133.956 237.811C134.148 237.736 134.314 237.616 134.453 237.453C134.599 237.284 134.712 237.069 134.794 236.807C134.875 236.545 134.916 236.225 134.916 235.847Z" fill="#28A745"/>
<path d="M26.2456 279.191C26.3387 279.191 26.4202 279.229 26.4901 279.305L27.1623 280.029C26.6501 280.623 26.0273 281.086 25.294 281.417C24.5665 281.749 23.6847 281.915 22.6487 281.915C21.7524 281.915 20.9376 281.761 20.2042 281.452C19.4709 281.138 18.8452 280.701 18.3272 280.143C17.8092 279.578 17.4076 278.903 17.1224 278.117C16.8372 277.332 16.6946 276.467 16.6946 275.524C16.6946 274.581 16.843 273.717 17.1399 272.931C17.4367 272.146 17.8528 271.471 18.3883 270.906C18.9296 270.341 19.5756 269.905 20.3264 269.596C21.0772 269.282 21.9066 269.125 22.8146 269.125C23.7051 269.125 24.4908 269.268 25.1718 269.553C25.8527 269.838 26.4522 270.225 26.9702 270.714L26.4115 271.491C26.3766 271.549 26.33 271.599 26.2718 271.639C26.2194 271.674 26.1467 271.692 26.0535 271.692C25.9488 271.692 25.8207 271.636 25.6694 271.526C25.5181 271.409 25.3202 271.281 25.0757 271.142C24.8313 271.002 24.5257 270.877 24.1591 270.766C23.7924 270.65 23.3413 270.592 22.8059 270.592C22.1598 270.592 21.5691 270.705 21.0336 270.932C20.4981 271.153 20.0354 271.476 19.6455 271.901C19.2613 272.326 18.9616 272.844 18.7462 273.455C18.5309 274.066 18.4232 274.756 18.4232 275.524C18.4232 276.304 18.5338 277 18.755 277.611C18.982 278.222 19.2875 278.74 19.6717 279.165C20.0616 279.584 20.5185 279.904 21.0423 280.125C21.572 280.346 22.1423 280.457 22.7535 280.457C23.126 280.457 23.4606 280.437 23.7575 280.396C24.0601 280.349 24.3366 280.279 24.5868 280.186C24.8429 280.093 25.0787 279.977 25.294 279.837C25.5152 279.692 25.7334 279.52 25.9488 279.322C26.0477 279.235 26.1467 279.191 26.2456 279.191ZM32.3167 272.792C32.9628 272.792 33.5448 272.899 34.0628 273.115C34.5808 273.33 35.0231 273.636 35.3898 274.031C35.7565 274.427 36.0359 274.907 36.2279 275.472C36.4258 276.031 36.5248 276.656 36.5248 277.349C36.5248 278.047 36.4258 278.676 36.2279 279.235C36.0359 279.793 35.7565 280.271 35.3898 280.667C35.0231 281.062 34.5808 281.368 34.0628 281.583C33.5448 281.793 32.9628 281.897 32.3167 281.897C31.6649 281.897 31.077 281.793 30.5532 281.583C30.0352 281.368 29.5929 281.062 29.2262 280.667C28.8595 280.271 28.5772 279.793 28.3794 279.235C28.1873 278.676 28.0913 278.047 28.0913 277.349C28.0913 276.656 28.1873 276.031 28.3794 275.472C28.5772 274.907 28.8595 274.427 29.2262 274.031C29.5929 273.636 30.0352 273.33 30.5532 273.115C31.077 272.899 31.6649 272.792 32.3167 272.792ZM32.3167 280.684C33.1898 280.684 33.8416 280.393 34.2723 279.811C34.703 279.223 34.9184 278.405 34.9184 277.358C34.9184 276.304 34.703 275.484 34.2723 274.896C33.8416 274.308 33.1898 274.014 32.3167 274.014C31.8744 274.014 31.4874 274.09 31.1556 274.241C30.8297 274.392 30.5561 274.611 30.3349 274.896C30.1196 275.181 29.9566 275.533 29.8461 275.952C29.7413 276.365 29.6889 276.834 29.6889 277.358C29.6889 278.405 29.9043 279.223 30.3349 279.811C30.7715 280.393 31.4321 280.684 32.3167 280.684ZM38.4958 281.775V272.931H39.4299C39.6511 272.931 39.7879 273.039 39.8402 273.254L39.9537 274.162C40.2797 273.761 40.6463 273.432 41.0538 273.176C41.4612 272.92 41.9326 272.792 42.4681 272.792C43.0617 272.792 43.5419 272.958 43.9086 273.289C44.2811 273.621 44.5488 274.069 44.7118 274.634C44.8398 274.314 45.0028 274.037 45.2007 273.804C45.4044 273.572 45.6314 273.38 45.8816 273.228C46.1319 273.077 46.3967 272.966 46.6761 272.897C46.9613 272.827 47.2494 272.792 47.5404 272.792C48.006 272.792 48.4193 272.867 48.7801 273.019C49.1468 273.164 49.4553 273.38 49.7055 273.665C49.9616 273.95 50.1566 274.302 50.2905 274.721C50.4243 275.134 50.4913 275.609 50.4913 276.144V281.775H48.9285V276.144C48.9285 275.452 48.7772 274.928 48.4745 274.573C48.1719 274.212 47.7354 274.031 47.165 274.031C46.9089 274.031 46.6645 274.078 46.4316 274.171C46.2047 274.258 46.0039 274.389 45.8293 274.564C45.6546 274.739 45.515 274.96 45.4102 275.228C45.3113 275.489 45.2618 275.795 45.2618 276.144V281.775H43.699V276.144C43.699 275.434 43.5565 274.904 43.2713 274.555C42.9861 274.206 42.5699 274.031 42.0228 274.031C41.6387 274.031 41.2837 274.136 40.9577 274.346C40.6318 274.549 40.332 274.829 40.0585 275.184V281.775H38.4958ZM54.4158 279.645C54.701 280.029 55.0124 280.3 55.35 280.457C55.6875 280.614 56.0658 280.693 56.4849 280.693C57.3114 280.693 57.9458 280.399 58.3881 279.811C58.8304 279.223 59.0516 278.385 59.0516 277.297C59.0516 276.72 58.9992 276.226 58.8945 275.812C58.7955 275.399 58.65 275.062 58.458 274.8C58.2659 274.532 58.0302 274.337 57.7508 274.215C57.4714 274.093 57.1542 274.031 56.7992 274.031C56.2928 274.031 55.8476 274.148 55.4634 274.381C55.0851 274.613 54.7359 274.942 54.4158 275.367V279.645ZM54.3372 274.302C54.7097 273.842 55.1404 273.473 55.6293 273.193C56.1182 272.914 56.677 272.774 57.3056 272.774C57.8177 272.774 58.2804 272.873 58.6937 273.071C59.1069 273.263 59.459 273.551 59.75 273.935C60.0411 274.314 60.2651 274.785 60.4223 275.35C60.5794 275.914 60.658 276.563 60.658 277.297C60.658 277.948 60.5707 278.557 60.3961 279.121C60.2215 279.68 59.9683 280.166 59.6366 280.579C59.3106 280.987 58.909 281.31 58.4318 281.548C57.9603 281.781 57.4278 281.897 56.8341 281.897C56.2928 281.897 55.8272 281.807 55.4373 281.627C55.0531 281.441 54.7126 281.185 54.4158 280.859V284.77H52.8531V272.931H53.7872C54.0084 272.931 54.1452 273.039 54.1976 273.254L54.3372 274.302ZM67.4336 277.794C66.7177 277.818 66.1066 277.876 65.6002 277.969C65.0997 278.056 64.6893 278.173 64.3692 278.318C64.0549 278.464 63.825 278.635 63.6795 278.833C63.5398 279.031 63.47 279.252 63.47 279.497C63.47 279.729 63.5078 279.93 63.5835 280.099C63.6591 280.268 63.761 280.408 63.889 280.518C64.0229 280.623 64.1771 280.701 64.3518 280.754C64.5322 280.8 64.7242 280.824 64.928 280.824C65.2015 280.824 65.4518 280.797 65.6788 280.745C65.9058 280.687 66.1182 280.605 66.3161 280.501C66.5198 280.396 66.7119 280.271 66.8923 280.125C67.0785 279.98 67.259 279.814 67.4336 279.628V277.794ZM62.4136 274.18C62.9025 273.708 63.4292 273.356 63.9938 273.124C64.5584 272.891 65.184 272.774 65.8708 272.774C66.3656 272.774 66.805 272.856 67.1891 273.019C67.5732 273.182 67.8963 273.409 68.1582 273.7C68.4201 273.991 68.618 274.343 68.7518 274.756C68.8857 275.169 68.9526 275.623 68.9526 276.118V281.775H68.2629C68.1116 281.775 67.9952 281.752 67.9137 281.705C67.8322 281.653 67.7682 281.554 67.7217 281.409L67.5471 280.57C67.3142 280.786 67.0873 280.978 66.8661 281.147C66.6449 281.31 66.4121 281.449 66.1677 281.566C65.9232 281.676 65.6613 281.761 65.3819 281.819C65.1084 281.883 64.8028 281.915 64.4652 281.915C64.1219 281.915 63.7988 281.868 63.4962 281.775C63.1935 281.676 62.9287 281.531 62.7017 281.339C62.4806 281.147 62.303 280.905 62.1692 280.614C62.0411 280.317 61.9771 279.968 61.9771 279.566C61.9771 279.217 62.0731 278.883 62.2652 278.563C62.4573 278.237 62.7687 277.948 63.1993 277.698C63.63 277.448 64.1917 277.244 64.8843 277.087C65.5769 276.924 66.4267 276.831 67.4336 276.808V276.118C67.4336 275.431 67.2851 274.913 66.9883 274.564C66.6915 274.209 66.2579 274.031 65.6875 274.031C65.3034 274.031 64.9803 274.081 64.7184 274.18C64.4623 274.273 64.2383 274.381 64.0462 274.503C63.8599 274.619 63.697 274.727 63.5573 274.826C63.4234 274.919 63.2896 274.966 63.1557 274.966C63.0509 274.966 62.9607 274.939 62.8851 274.887C62.8094 274.829 62.7454 274.759 62.693 274.678L62.4136 274.18ZM72.7952 274.704C73.0746 274.098 73.418 273.627 73.8254 273.289C74.2328 272.946 74.7304 272.774 75.3183 272.774C75.5045 272.774 75.6821 272.795 75.8508 272.835C76.0254 272.876 76.1797 272.94 76.3135 273.027L76.2001 274.189C76.1651 274.334 76.0778 274.407 75.9381 274.407C75.8567 274.407 75.7373 274.389 75.5802 274.354C75.4231 274.32 75.2455 274.302 75.0476 274.302C74.7683 274.302 74.518 274.343 74.2968 274.424C74.0815 274.506 73.8865 274.628 73.7119 274.791C73.5431 274.948 73.3889 275.146 73.2492 275.385C73.1153 275.617 72.9931 275.885 72.8825 276.188V281.775H71.3198V272.931H72.2103C72.3791 272.931 72.4955 272.963 72.5595 273.027C72.6235 273.091 72.6672 273.202 72.6905 273.359L72.7952 274.704ZM83.2411 276.389C83.2411 276.028 83.1887 275.699 83.0839 275.402C82.985 275.099 82.8366 274.84 82.6387 274.625C82.4466 274.404 82.2109 274.235 81.9315 274.119C81.6521 273.997 81.3349 273.935 80.9799 273.935C80.2349 273.935 79.6442 274.154 79.2077 274.59C78.777 275.021 78.5092 275.62 78.4045 276.389H83.2411ZM84.4982 280.536C84.3062 280.768 84.0763 280.972 83.8085 281.147C83.5408 281.315 83.2527 281.455 82.9442 281.566C82.6416 281.676 82.3273 281.758 82.0014 281.81C81.6754 281.868 81.3524 281.897 81.0323 281.897C80.4212 281.897 79.8566 281.796 79.3386 281.592C78.8264 281.382 78.3812 281.08 78.0029 280.684C77.6304 280.282 77.3394 279.788 77.1298 279.2C76.9203 278.612 76.8155 277.937 76.8155 277.174C76.8155 276.557 76.9087 275.981 77.0949 275.446C77.287 274.91 77.5605 274.448 77.9156 274.058C78.2706 273.662 78.7042 273.353 79.2164 273.132C79.7286 272.905 80.3048 272.792 80.945 272.792C81.4746 272.792 81.9635 272.882 82.4117 273.062C82.8657 273.237 83.2556 273.493 83.5815 273.831C83.9133 274.162 84.1723 274.576 84.3585 275.07C84.5448 275.559 84.6379 276.118 84.6379 276.747C84.6379 276.991 84.6117 277.154 84.5593 277.235C84.507 277.317 84.408 277.358 84.2625 277.358H78.3521C78.3695 277.916 78.4452 278.402 78.5791 278.816C78.7188 279.229 78.9108 279.575 79.1553 279.855C79.3997 280.128 79.6907 280.335 80.0283 280.474C80.3659 280.608 80.7442 280.675 81.1632 280.675C81.5532 280.675 81.8879 280.632 82.1672 280.544C82.4524 280.451 82.6969 280.352 82.9006 280.247C83.1043 280.143 83.2731 280.047 83.4069 279.959C83.5466 279.866 83.6659 279.82 83.7649 279.82C83.8929 279.82 83.9919 279.869 84.0617 279.968L84.4982 280.536ZM92.3088 275.035C92.0177 274.645 91.7034 274.375 91.3659 274.224C91.0283 274.066 90.65 273.988 90.2309 273.988C89.4103 273.988 88.7788 274.282 88.3364 274.87C87.8941 275.457 87.6729 276.296 87.6729 277.384C87.6729 277.96 87.7224 278.455 87.8214 278.868C87.9203 279.275 88.0658 279.613 88.2579 279.881C88.4499 280.143 88.6857 280.335 88.965 280.457C89.2444 280.579 89.5616 280.64 89.9166 280.64C90.4288 280.64 90.8741 280.524 91.2524 280.291C91.6365 280.058 91.9886 279.729 92.3088 279.305V275.035ZM93.8628 268.915V281.775H92.9373C92.7162 281.775 92.5765 281.668 92.5183 281.452L92.3786 280.378C92.0003 280.832 91.5696 281.199 91.0865 281.478C90.6034 281.758 90.0447 281.897 89.4103 281.897C88.9039 281.897 88.4441 281.801 88.0309 281.609C87.6176 281.412 87.2655 281.123 86.9745 280.745C86.6835 280.367 86.4594 279.895 86.3023 279.331C86.1451 278.766 86.0666 278.117 86.0666 277.384C86.0666 276.732 86.1539 276.127 86.3285 275.568C86.5031 275.003 86.7533 274.515 87.0793 274.101C87.4052 273.688 87.8039 273.365 88.2753 273.132C88.7526 272.894 89.2881 272.774 89.8817 272.774C90.423 272.774 90.8857 272.867 91.2698 273.054C91.6598 273.234 92.0061 273.487 92.3088 273.813V268.915H93.8628ZM103.5 281.915C102.801 281.915 102.263 281.72 101.885 281.33C101.512 280.94 101.326 280.378 101.326 279.645V274.232H100.261C100.168 274.232 100.089 274.206 100.025 274.154C99.9611 274.095 99.9291 274.008 99.9291 273.892V273.272L101.378 273.089L101.736 270.356C101.754 270.269 101.792 270.199 101.85 270.146C101.914 270.088 101.995 270.059 102.094 270.059H102.88V273.106H105.438V274.232H102.88V279.54C102.88 279.913 102.97 280.189 103.151 280.37C103.331 280.55 103.564 280.64 103.849 280.64C104.012 280.64 104.152 280.62 104.268 280.579C104.39 280.533 104.495 280.483 104.582 280.431C104.67 280.378 104.742 280.332 104.801 280.291C104.865 280.245 104.92 280.221 104.967 280.221C105.048 280.221 105.121 280.271 105.185 280.37L105.639 281.112C105.371 281.362 105.048 281.56 104.67 281.705C104.291 281.845 103.901 281.915 103.5 281.915ZM110.719 272.792C111.365 272.792 111.947 272.899 112.465 273.115C112.983 273.33 113.426 273.636 113.792 274.031C114.159 274.427 114.438 274.907 114.63 275.472C114.828 276.031 114.927 276.656 114.927 277.349C114.927 278.047 114.828 278.676 114.63 279.235C114.438 279.793 114.159 280.271 113.792 280.667C113.426 281.062 112.983 281.368 112.465 281.583C111.947 281.793 111.365 281.897 110.719 281.897C110.067 281.897 109.48 281.793 108.956 281.583C108.438 281.368 107.995 281.062 107.629 280.667C107.262 280.271 106.98 279.793 106.782 279.235C106.59 278.676 106.494 278.047 106.494 277.349C106.494 276.656 106.59 276.031 106.782 275.472C106.98 274.907 107.262 274.427 107.629 274.031C107.995 273.636 108.438 273.33 108.956 273.115C109.48 272.899 110.067 272.792 110.719 272.792ZM110.719 280.684C111.592 280.684 112.244 280.393 112.675 279.811C113.106 279.223 113.321 278.405 113.321 277.358C113.321 276.304 113.106 275.484 112.675 274.896C112.244 274.308 111.592 274.014 110.719 274.014C110.277 274.014 109.89 274.09 109.558 274.241C109.232 274.392 108.959 274.611 108.737 274.896C108.522 275.181 108.359 275.533 108.249 275.952C108.144 276.365 108.091 276.834 108.091 277.358C108.091 278.405 108.307 279.223 108.737 279.811C109.174 280.393 109.835 280.684 110.719 280.684ZM125.181 280.623C125.6 280.623 125.978 280.556 126.316 280.422C126.659 280.288 126.95 280.102 127.189 279.863C127.433 279.625 127.62 279.342 127.748 279.016C127.882 278.691 127.948 278.336 127.948 277.951C127.948 277.544 127.884 277.177 127.756 276.851C127.628 276.52 127.445 276.24 127.206 276.013C126.974 275.78 126.694 275.603 126.368 275.481C126.042 275.358 125.684 275.297 125.294 275.297C124.875 275.297 124.497 275.37 124.159 275.516C123.822 275.655 123.534 275.847 123.295 276.092C123.062 276.33 122.882 276.61 122.754 276.93C122.632 277.244 122.571 277.573 122.571 277.916C122.571 278.318 122.629 278.685 122.745 279.016C122.862 279.348 123.03 279.633 123.252 279.872C123.479 280.111 123.752 280.297 124.072 280.431C124.398 280.559 124.768 280.623 125.181 280.623ZM124.273 273.953C124.162 274.093 124.055 274.229 123.95 274.363C123.851 274.491 123.755 274.619 123.662 274.747C123.959 274.544 124.285 274.386 124.64 274.276C124.995 274.165 125.382 274.11 125.801 274.11C126.307 274.11 126.784 274.194 127.233 274.363C127.681 274.526 128.071 274.768 128.402 275.088C128.74 275.402 129.008 275.792 129.206 276.258C129.403 276.717 129.502 277.244 129.502 277.838C129.502 278.414 129.398 278.95 129.188 279.444C128.979 279.939 128.685 280.37 128.306 280.736C127.934 281.103 127.483 281.391 126.953 281.601C126.429 281.81 125.85 281.915 125.216 281.915C124.587 281.915 124.017 281.816 123.505 281.618C122.993 281.414 122.556 281.129 122.195 280.763C121.84 280.39 121.564 279.942 121.366 279.418C121.174 278.888 121.078 278.298 121.078 277.646C121.078 277.099 121.197 276.517 121.436 275.9C121.68 275.277 122.067 274.613 122.597 273.909L125.775 269.64C125.856 269.535 125.967 269.448 126.106 269.378C126.252 269.303 126.418 269.265 126.604 269.265H127.983L124.273 273.953ZM138.88 280.3C139.049 280.3 139.183 280.349 139.282 280.448C139.381 280.547 139.43 280.675 139.43 280.832V281.775H131.084V281.243C131.084 281.132 131.107 281.019 131.154 280.902C131.2 280.786 131.273 280.678 131.372 280.579L135.379 276.555C135.711 276.217 136.014 275.894 136.287 275.585C136.561 275.271 136.794 274.957 136.986 274.643C137.178 274.328 137.326 274.011 137.431 273.691C137.536 273.365 137.588 273.019 137.588 272.652C137.588 272.285 137.53 271.965 137.413 271.692C137.297 271.412 137.137 271.182 136.933 271.002C136.735 270.822 136.5 270.688 136.226 270.6C135.953 270.507 135.659 270.461 135.344 270.461C135.024 270.461 134.73 270.507 134.463 270.6C134.195 270.694 133.956 270.825 133.747 270.993C133.543 271.156 133.371 271.351 133.232 271.578C133.092 271.805 132.993 272.055 132.935 272.329C132.865 272.533 132.769 272.67 132.647 272.739C132.53 272.803 132.364 272.821 132.149 272.792L131.337 272.652C131.419 272.082 131.576 271.578 131.809 271.142C132.047 270.699 132.344 270.33 132.699 270.033C133.06 269.736 133.47 269.512 133.93 269.361C134.39 269.204 134.888 269.125 135.423 269.125C135.953 269.125 136.447 269.204 136.907 269.361C137.367 269.518 137.766 269.748 138.103 270.05C138.441 270.347 138.706 270.711 138.898 271.142C139.09 271.572 139.186 272.061 139.186 272.608C139.186 273.074 139.116 273.508 138.976 273.909C138.837 274.305 138.647 274.683 138.409 275.044C138.17 275.405 137.894 275.757 137.579 276.101C137.271 276.444 136.942 276.79 136.593 277.139L133.293 280.509C133.526 280.445 133.761 280.396 134 280.361C134.239 280.32 134.468 280.3 134.69 280.3H138.88ZM147.697 268.915V281.775H146.143V268.915H147.697ZM155.01 277.794C154.294 277.818 153.683 277.876 153.176 277.969C152.676 278.056 152.266 278.173 151.945 278.318C151.631 278.464 151.401 278.635 151.256 278.833C151.116 279.031 151.046 279.252 151.046 279.497C151.046 279.729 151.084 279.93 151.16 280.099C151.235 280.268 151.337 280.408 151.465 280.518C151.599 280.623 151.753 280.701 151.928 280.754C152.108 280.8 152.3 280.824 152.504 280.824C152.778 280.824 153.028 280.797 153.255 280.745C153.482 280.687 153.694 280.605 153.892 280.501C154.096 280.396 154.288 280.271 154.468 280.125C154.655 279.98 154.835 279.814 155.01 279.628V277.794ZM149.99 274.18C150.479 273.708 151.005 273.356 151.57 273.124C152.135 272.891 152.76 272.774 153.447 272.774C153.942 272.774 154.381 272.856 154.765 273.019C155.149 273.182 155.472 273.409 155.734 273.7C155.996 273.991 156.194 274.343 156.328 274.756C156.462 275.169 156.529 275.623 156.529 276.118V281.775H155.839C155.688 281.775 155.571 281.752 155.49 281.705C155.408 281.653 155.344 281.554 155.298 281.409L155.123 280.57C154.89 280.786 154.663 280.978 154.442 281.147C154.221 281.31 153.988 281.449 153.744 281.566C153.499 281.676 153.237 281.761 152.958 281.819C152.685 281.883 152.379 281.915 152.041 281.915C151.698 281.915 151.375 281.868 151.072 281.775C150.77 281.676 150.505 281.531 150.278 281.339C150.057 281.147 149.879 280.905 149.745 280.614C149.617 280.317 149.553 279.968 149.553 279.566C149.553 279.217 149.649 278.883 149.841 278.563C150.033 278.237 150.345 277.948 150.776 277.698C151.206 277.448 151.768 277.244 152.46 277.087C153.153 276.924 154.003 276.831 155.01 276.808V276.118C155.01 275.431 154.861 274.913 154.565 274.564C154.268 274.209 153.834 274.031 153.264 274.031C152.88 274.031 152.557 274.081 152.295 274.18C152.039 274.273 151.814 274.381 151.622 274.503C151.436 274.619 151.273 274.727 151.133 274.826C151 274.919 150.866 274.966 150.732 274.966C150.627 274.966 150.537 274.939 150.461 274.887C150.386 274.829 150.322 274.759 150.269 274.678L149.99 274.18ZM164.047 274.389C163.977 274.517 163.869 274.581 163.724 274.581C163.637 274.581 163.538 274.549 163.427 274.485C163.316 274.421 163.18 274.352 163.017 274.276C162.86 274.194 162.67 274.122 162.449 274.058C162.228 273.988 161.966 273.953 161.664 273.953C161.402 273.953 161.166 273.988 160.956 274.058C160.747 274.122 160.566 274.212 160.415 274.328C160.27 274.445 160.156 274.581 160.075 274.739C159.999 274.89 159.961 275.056 159.961 275.236C159.961 275.463 160.025 275.652 160.153 275.804C160.287 275.955 160.462 276.086 160.677 276.197C160.892 276.307 161.137 276.406 161.41 276.493C161.684 276.575 161.963 276.665 162.248 276.764C162.539 276.857 162.822 276.962 163.095 277.078C163.369 277.195 163.613 277.34 163.829 277.515C164.044 277.689 164.216 277.905 164.344 278.161C164.478 278.411 164.545 278.714 164.545 279.069C164.545 279.476 164.472 279.855 164.326 280.204C164.181 280.547 163.965 280.847 163.68 281.103C163.395 281.353 163.046 281.551 162.633 281.697C162.219 281.842 161.742 281.915 161.201 281.915C160.584 281.915 160.025 281.816 159.525 281.618C159.024 281.414 158.599 281.155 158.25 280.841L158.617 280.247C158.663 280.172 158.718 280.114 158.782 280.073C158.847 280.032 158.928 280.012 159.027 280.012C159.132 280.012 159.242 280.052 159.359 280.134C159.475 280.215 159.615 280.306 159.778 280.405C159.947 280.504 160.15 280.594 160.389 280.675C160.628 280.757 160.924 280.797 161.279 280.797C161.582 280.797 161.847 280.76 162.074 280.684C162.301 280.602 162.49 280.495 162.641 280.361C162.793 280.227 162.903 280.073 162.973 279.898C163.049 279.724 163.087 279.537 163.087 279.34C163.087 279.095 163.02 278.894 162.886 278.737C162.758 278.574 162.586 278.437 162.371 278.327C162.155 278.21 161.908 278.111 161.629 278.03C161.355 277.943 161.073 277.852 160.782 277.759C160.497 277.666 160.214 277.561 159.935 277.445C159.661 277.323 159.417 277.171 159.202 276.991C158.986 276.811 158.812 276.589 158.678 276.328C158.55 276.06 158.486 275.737 158.486 275.358C158.486 275.021 158.556 274.698 158.695 274.389C158.835 274.075 159.039 273.802 159.306 273.569C159.574 273.33 159.903 273.141 160.293 273.001C160.683 272.862 161.128 272.792 161.629 272.792C162.211 272.792 162.732 272.885 163.191 273.071C163.657 273.252 164.059 273.502 164.396 273.822L164.047 274.389ZM169.165 281.915C168.466 281.915 167.928 281.72 167.55 281.33C167.177 280.94 166.991 280.378 166.991 279.645V274.232H165.926C165.833 274.232 165.754 274.206 165.69 274.154C165.626 274.095 165.594 274.008 165.594 273.892V273.272L167.043 273.089L167.401 270.356C167.419 270.269 167.457 270.199 167.515 270.146C167.579 270.088 167.66 270.059 167.759 270.059H168.545V273.106H171.103V274.232H168.545V279.54C168.545 279.913 168.635 280.189 168.816 280.37C168.996 280.55 169.229 280.64 169.514 280.64C169.677 280.64 169.817 280.62 169.933 280.579C170.055 280.533 170.16 280.483 170.247 280.431C170.335 280.378 170.408 280.332 170.466 280.291C170.53 280.245 170.585 280.221 170.632 280.221C170.713 280.221 170.786 280.271 170.85 280.37L171.304 281.112C171.036 281.362 170.713 281.56 170.335 281.705C169.956 281.845 169.567 281.915 169.165 281.915ZM189.013 272.931L186.15 281.775H184.919C184.767 281.775 184.663 281.676 184.605 281.478L182.649 275.481C182.602 275.347 182.565 275.213 182.535 275.079C182.506 274.939 182.477 274.803 182.448 274.669C182.419 274.803 182.39 274.939 182.361 275.079C182.332 275.213 182.294 275.35 182.247 275.489L180.257 281.478C180.204 281.676 180.088 281.775 179.908 281.775H178.738L175.874 272.931H177.096C177.219 272.931 177.321 272.963 177.402 273.027C177.489 273.091 177.547 273.167 177.577 273.254L179.27 278.947C179.369 279.366 179.448 279.761 179.506 280.134C179.558 279.942 179.611 279.747 179.663 279.549C179.721 279.351 179.782 279.15 179.846 278.947L181.715 273.22C181.744 273.132 181.793 273.059 181.863 273.001C181.939 272.943 182.029 272.914 182.134 272.914H182.815C182.931 272.914 183.027 272.943 183.103 273.001C183.179 273.059 183.231 273.132 183.26 273.22L185.085 278.947C185.149 279.15 185.207 279.351 185.259 279.549C185.312 279.747 185.361 279.942 185.408 280.134C185.437 279.942 185.472 279.75 185.512 279.558C185.559 279.36 185.609 279.156 185.661 278.947L187.389 273.254C187.419 273.161 187.474 273.086 187.555 273.027C187.637 272.963 187.733 272.931 187.843 272.931H189.013ZM196.326 276.389C196.326 276.028 196.274 275.699 196.169 275.402C196.07 275.099 195.922 274.84 195.724 274.625C195.532 274.404 195.296 274.235 195.017 274.119C194.737 273.997 194.42 273.935 194.065 273.935C193.32 273.935 192.729 274.154 192.293 274.59C191.862 275.021 191.594 275.62 191.49 276.389H196.326ZM197.583 280.536C197.391 280.768 197.161 280.972 196.894 281.147C196.626 281.315 196.338 281.455 196.029 281.566C195.727 281.676 195.412 281.758 195.087 281.81C194.761 281.868 194.438 281.897 194.117 281.897C193.506 281.897 192.942 281.796 192.424 281.592C191.912 281.382 191.466 281.08 191.088 280.684C190.716 280.282 190.425 279.788 190.215 279.2C190.005 278.612 189.901 277.937 189.901 277.174C189.901 276.557 189.994 275.981 190.18 275.446C190.372 274.91 190.646 274.448 191.001 274.058C191.356 273.662 191.789 273.353 192.302 273.132C192.814 272.905 193.39 272.792 194.03 272.792C194.56 272.792 195.049 272.882 195.497 273.062C195.951 273.237 196.341 273.493 196.667 273.831C196.998 274.162 197.257 274.576 197.444 275.07C197.63 275.559 197.723 276.118 197.723 276.747C197.723 276.991 197.697 277.154 197.644 277.235C197.592 277.317 197.493 277.358 197.348 277.358H191.437C191.455 277.916 191.53 278.402 191.664 278.816C191.804 279.229 191.996 279.575 192.24 279.855C192.485 280.128 192.776 280.335 193.113 280.474C193.451 280.608 193.829 280.675 194.248 280.675C194.638 280.675 194.973 280.632 195.252 280.544C195.538 280.451 195.782 280.352 195.986 280.247C196.189 280.143 196.358 280.047 196.492 279.959C196.632 279.866 196.751 279.82 196.85 279.82C196.978 279.82 197.077 279.869 197.147 279.968L197.583 280.536ZM205.551 276.389C205.551 276.028 205.499 275.699 205.394 275.402C205.295 275.099 205.147 274.84 204.949 274.625C204.757 274.404 204.521 274.235 204.241 274.119C203.962 273.997 203.645 273.935 203.29 273.935C202.545 273.935 201.954 274.154 201.518 274.59C201.087 275.021 200.819 275.62 200.714 276.389H205.551ZM206.808 280.536C206.616 280.768 206.386 280.972 206.119 281.147C205.851 281.315 205.563 281.455 205.254 281.566C204.952 281.676 204.637 281.758 204.311 281.81C203.985 281.868 203.662 281.897 203.342 281.897C202.731 281.897 202.167 281.796 201.649 281.592C201.136 281.382 200.691 281.08 200.313 280.684C199.94 280.282 199.649 279.788 199.44 279.2C199.23 278.612 199.126 277.937 199.126 277.174C199.126 276.557 199.219 275.981 199.405 275.446C199.597 274.91 199.871 274.448 200.226 274.058C200.581 273.662 201.014 273.353 201.526 273.132C202.039 272.905 202.615 272.792 203.255 272.792C203.785 272.792 204.274 272.882 204.722 273.062C205.176 273.237 205.566 273.493 205.892 273.831C206.223 274.162 206.482 274.576 206.669 275.07C206.855 275.559 206.948 276.118 206.948 276.747C206.948 276.991 206.922 277.154 206.869 277.235C206.817 277.317 206.718 277.358 206.572 277.358H200.662C200.68 277.916 200.755 278.402 200.889 278.816C201.029 279.229 201.221 279.575 201.465 279.855C201.71 280.128 202.001 280.335 202.338 280.474C202.676 280.608 203.054 280.675 203.473 280.675C203.863 280.675 204.198 280.632 204.477 280.544C204.762 280.451 205.007 280.352 205.211 280.247C205.414 280.143 205.583 280.047 205.717 279.959C205.857 279.866 205.976 279.82 206.075 279.82C206.203 279.82 206.302 279.869 206.372 279.968L206.808 280.536ZM210.419 268.915V276.485H210.821C210.937 276.485 211.033 276.47 211.109 276.441C211.191 276.406 211.275 276.339 211.362 276.24L214.156 273.246C214.238 273.147 214.322 273.071 214.409 273.019C214.502 272.961 214.625 272.931 214.776 272.931H216.181L212.925 276.397C212.768 276.595 212.599 276.75 212.419 276.86C212.523 276.93 212.617 277.011 212.698 277.105C212.785 277.192 212.867 277.294 212.943 277.41L216.4 281.775H215.012C214.878 281.775 214.761 281.755 214.662 281.714C214.569 281.668 214.488 281.586 214.418 281.47L211.511 277.847C211.423 277.724 211.336 277.646 211.249 277.611C211.167 277.57 211.039 277.55 210.865 277.55H210.419V281.775H208.857V268.915H210.419Z" fill="#6C757D"/>
<path d="M24.6654 305.826V307.764H17.2708V295.14H19.6193V305.826H24.6654ZM30.7335 303.94C30.1108 303.969 29.587 304.025 29.1621 304.106C28.7372 304.182 28.3967 304.281 28.1406 304.403C27.8845 304.525 27.7012 304.668 27.5906 304.831C27.48 304.994 27.4247 305.171 27.4247 305.363C27.4247 305.742 27.5353 306.012 27.7565 306.175C27.9835 306.338 28.2774 306.42 28.6383 306.42C29.0806 306.42 29.4618 306.341 29.7819 306.184C30.1079 306.021 30.4251 305.776 30.7335 305.45V303.94ZM25.7922 300.055C26.8224 299.112 28.0621 298.641 29.5113 298.641C30.0351 298.641 30.5036 298.728 30.9169 298.903C31.3301 299.072 31.6793 299.31 31.9645 299.619C32.2497 299.921 32.4651 300.285 32.6106 300.71C32.7619 301.135 32.8376 301.6 32.8376 302.107V307.764H31.8598C31.6561 307.764 31.4989 307.735 31.3883 307.677C31.2777 307.613 31.1904 307.488 31.1264 307.301L30.9343 306.655C30.7074 306.859 30.4862 307.039 30.2708 307.197C30.0555 307.348 29.8314 307.476 29.5986 307.581C29.3658 307.685 29.1155 307.764 28.8478 307.816C28.5859 307.875 28.2949 307.904 27.9748 307.904C27.5964 307.904 27.2472 307.854 26.9271 307.755C26.607 307.651 26.3305 307.496 26.0977 307.293C25.8649 307.089 25.6845 306.836 25.5565 306.533C25.4284 306.23 25.3644 305.878 25.3644 305.477C25.3644 305.25 25.4022 305.026 25.4779 304.804C25.5535 304.577 25.6758 304.362 25.8446 304.158C26.0192 303.955 26.2432 303.763 26.5168 303.582C26.7903 303.402 27.125 303.245 27.5208 303.111C27.9224 302.977 28.388 302.869 28.9176 302.788C29.4473 302.7 30.0526 302.648 30.7335 302.631V302.107C30.7335 301.507 30.6055 301.065 30.3494 300.78C30.0933 300.489 29.7237 300.343 29.2407 300.343C28.8914 300.343 28.6004 300.384 28.3676 300.465C28.1406 300.547 27.9398 300.64 27.7652 300.745C27.5906 300.844 27.4306 300.934 27.2851 301.015C27.1454 301.097 26.9882 301.138 26.8136 301.138C26.6623 301.138 26.5343 301.1 26.4295 301.024C26.3247 300.943 26.2403 300.85 26.1763 300.745L25.7922 300.055ZM40.3336 300.553C40.2754 300.646 40.2143 300.713 40.1503 300.754C40.0863 300.788 40.0048 300.806 39.9059 300.806C39.8011 300.806 39.6876 300.777 39.5654 300.719C39.449 300.66 39.3122 300.596 39.155 300.527C38.9979 300.451 38.8175 300.384 38.6138 300.326C38.4159 300.268 38.1802 300.238 37.9066 300.238C37.4817 300.238 37.1471 300.329 36.9026 300.509C36.664 300.69 36.5447 300.925 36.5447 301.216C36.5447 301.408 36.6058 301.571 36.728 301.705C36.8561 301.833 37.0219 301.947 37.2256 302.046C37.4352 302.145 37.6709 302.235 37.9328 302.316C38.1947 302.392 38.4595 302.476 38.7273 302.569C39.0008 302.663 39.2685 302.77 39.5304 302.893C39.7924 303.009 40.0252 303.16 40.2289 303.346C40.4384 303.527 40.6043 303.745 40.7265 304.001C40.8546 304.257 40.9186 304.566 40.9186 304.927C40.9186 305.357 40.84 305.756 40.6829 306.123C40.5315 306.484 40.3045 306.798 40.0019 307.066C39.6992 307.328 39.3238 307.534 38.8757 307.685C38.4333 307.831 37.9212 307.904 37.3391 307.904C37.0307 307.904 36.728 307.875 36.4312 307.816C36.1402 307.764 35.8579 307.688 35.5843 307.589C35.3166 307.49 35.0663 307.374 34.8335 307.24C34.6065 307.106 34.4057 306.961 34.2311 306.804L34.7288 305.983C34.7928 305.884 34.8684 305.808 34.9558 305.756C35.0431 305.704 35.1536 305.677 35.2875 305.677C35.4214 305.677 35.5465 305.715 35.6629 305.791C35.7851 305.867 35.9248 305.948 36.082 306.035C36.2391 306.123 36.4224 306.204 36.632 306.28C36.8473 306.356 37.118 306.393 37.4439 306.393C37.7 306.393 37.9182 306.364 38.0987 306.306C38.2849 306.242 38.4362 306.161 38.5527 306.062C38.6749 305.963 38.7622 305.849 38.8146 305.721C38.8728 305.587 38.9019 305.45 38.9019 305.311C38.9019 305.101 38.8378 304.93 38.7098 304.796C38.5876 304.662 38.4217 304.545 38.2122 304.447C38.0085 304.348 37.7727 304.26 37.505 304.185C37.2431 304.103 36.9725 304.016 36.6931 303.923C36.4195 303.83 36.1489 303.722 35.8812 303.6C35.6193 303.472 35.3835 303.312 35.174 303.119C34.9703 302.927 34.8044 302.692 34.6764 302.412C34.5542 302.133 34.493 301.795 34.493 301.4C34.493 301.033 34.5658 300.684 34.7113 300.352C34.8568 300.02 35.0692 299.732 35.3486 299.488C35.6338 299.237 35.9859 299.04 36.405 298.894C36.8299 298.743 37.3188 298.667 37.8717 298.667C38.4886 298.667 39.0503 298.769 39.5566 298.973C40.063 299.176 40.485 299.444 40.8225 299.776L40.3336 300.553ZM45.5274 307.904C44.7475 307.904 44.148 307.685 43.7289 307.249C43.3157 306.807 43.1091 306.198 43.1091 305.424V300.422H42.1924C42.076 300.422 41.977 300.384 41.8956 300.308C41.8141 300.233 41.7733 300.119 41.7733 299.968V299.112L43.2138 298.877L43.6678 296.432C43.6969 296.316 43.7522 296.225 43.8337 296.161C43.9152 296.097 44.0199 296.065 44.148 296.065H45.2655V298.885H47.6576V300.422H45.2655V305.276C45.2655 305.555 45.3324 305.774 45.4663 305.931C45.6059 306.088 45.7951 306.166 46.0337 306.166C46.1676 306.166 46.2782 306.152 46.3655 306.123C46.4586 306.088 46.5372 306.053 46.6012 306.018C46.671 305.983 46.7322 305.951 46.7845 305.922C46.8369 305.887 46.8893 305.87 46.9417 305.87C47.0057 305.87 47.0581 305.887 47.0988 305.922C47.1396 305.951 47.1832 305.998 47.2298 306.062L47.8758 307.109C47.5615 307.371 47.2007 307.569 46.7933 307.703C46.3859 307.837 45.9639 307.904 45.5274 307.904ZM53.284 307.764V298.807H54.6023C54.8817 298.807 55.065 298.938 55.1523 299.2L55.292 299.863C55.4491 299.688 55.6121 299.528 55.7809 299.383C55.9555 299.237 56.1388 299.112 56.3309 299.008C56.5288 298.903 56.7383 298.821 56.9595 298.763C57.1865 298.699 57.4338 298.667 57.7016 298.667C58.2661 298.667 58.7288 298.821 59.0897 299.13C59.4564 299.432 59.7299 299.837 59.9103 300.343C60.05 300.046 60.2246 299.793 60.4342 299.584C60.6437 299.368 60.8736 299.194 61.1238 299.06C61.3741 298.926 61.6389 298.827 61.9183 298.763C62.2035 298.699 62.4887 298.667 62.7739 298.667C63.2686 298.667 63.708 298.743 64.0922 298.894C64.4763 299.045 64.7993 299.267 65.0612 299.558C65.3231 299.849 65.521 300.204 65.6549 300.623C65.7946 301.042 65.8644 301.522 65.8644 302.063V307.764H63.708V302.063C63.708 301.493 63.5829 301.065 63.3326 300.78C63.0824 300.489 62.7157 300.343 62.2326 300.343C62.0114 300.343 61.8048 300.381 61.6127 300.457C61.4265 300.532 61.2606 300.643 61.1151 300.788C60.9754 300.928 60.8648 301.106 60.7834 301.321C60.7019 301.536 60.6611 301.784 60.6611 302.063V307.764H58.496V302.063C58.496 301.464 58.3738 301.027 58.1293 300.754C57.8907 300.48 57.5386 300.343 57.073 300.343C56.7587 300.343 56.4648 300.422 56.1912 300.579C55.9235 300.73 55.6732 300.94 55.4404 301.208V307.764H53.284ZM71.8777 298.667C72.5412 298.667 73.1436 298.775 73.6849 298.99C74.232 299.205 74.6976 299.511 75.0817 299.907C75.4717 300.303 75.7714 300.786 75.981 301.356C76.1905 301.926 76.2953 302.564 76.2953 303.268C76.2953 303.978 76.1905 304.618 75.981 305.189C75.7714 305.759 75.4717 306.245 75.0817 306.647C74.6976 307.048 74.232 307.357 73.6849 307.572C73.1436 307.787 72.5412 307.895 71.8777 307.895C71.2084 307.895 70.6002 307.787 70.0531 307.572C69.506 307.357 69.0374 307.048 68.6475 306.647C68.2634 306.245 67.9636 305.759 67.7483 305.189C67.5387 304.618 67.434 303.978 67.434 303.268C67.434 302.564 67.5387 301.926 67.7483 301.356C67.9636 300.786 68.2634 300.303 68.6475 299.907C69.0374 299.511 69.506 299.205 70.0531 298.99C70.6002 298.775 71.2084 298.667 71.8777 298.667ZM71.8777 306.236C72.6227 306.236 73.1727 305.986 73.5277 305.485C73.8886 304.985 74.069 304.252 74.069 303.285C74.069 302.319 73.8886 301.583 73.5277 301.077C73.1727 300.57 72.6227 300.317 71.8777 300.317C71.1211 300.317 70.5594 300.573 70.1928 301.085C69.8319 301.592 69.6515 302.325 69.6515 303.285C69.6515 304.246 69.8319 304.979 70.1928 305.485C70.5594 305.986 71.1211 306.236 71.8777 306.236ZM79.9571 299.907C80.1375 299.726 80.3267 299.56 80.5246 299.409C80.7283 299.252 80.9407 299.121 81.1619 299.016C81.3889 298.906 81.6304 298.821 81.8865 298.763C82.1426 298.699 82.422 298.667 82.7246 298.667C83.2135 298.667 83.6471 298.751 84.0254 298.92C84.4037 299.083 84.718 299.316 84.9683 299.619C85.2244 299.915 85.4165 300.273 85.5445 300.692C85.6784 301.106 85.7453 301.563 85.7453 302.063V307.764H83.5889V302.063C83.5889 301.516 83.4638 301.094 83.2135 300.797C82.9632 300.495 82.582 300.343 82.0698 300.343C81.6973 300.343 81.3481 300.428 81.0222 300.596C80.6963 300.765 80.3878 300.995 80.0968 301.286V307.764H77.9404V298.807H79.2587C79.538 298.807 79.7214 298.938 79.8087 299.2L79.9571 299.907ZM90.6625 307.904C89.8826 307.904 89.2831 307.685 88.8641 307.249C88.4508 306.807 88.2442 306.198 88.2442 305.424V300.422H87.3275C87.2111 300.422 87.1122 300.384 87.0307 300.308C86.9492 300.233 86.9085 300.119 86.9085 299.968V299.112L88.349 298.877L88.803 296.432C88.8321 296.316 88.8874 296.225 88.9688 296.161C89.0503 296.097 89.1551 296.065 89.2831 296.065H90.4006V298.885H92.7927V300.422H90.4006V305.276C90.4006 305.555 90.4676 305.774 90.6014 305.931C90.7411 306.088 90.9303 306.166 91.1689 306.166C91.3028 306.166 91.4133 306.152 91.5006 306.123C91.5938 306.088 91.6723 306.053 91.7364 306.018C91.8062 305.983 91.8673 305.951 91.9197 305.922C91.9721 305.887 92.0245 305.87 92.0768 305.87C92.1409 305.87 92.1933 305.887 92.234 305.922C92.2747 305.951 92.3184 305.998 92.3649 306.062L93.011 307.109C92.6967 307.371 92.3358 307.569 91.9284 307.703C91.521 307.837 91.099 307.904 90.6625 307.904ZM96.3298 299.767C96.679 299.441 97.0631 299.176 97.4822 298.973C97.9012 298.769 98.393 298.667 98.9576 298.667C99.4465 298.667 99.8801 298.751 100.258 298.92C100.637 299.083 100.951 299.316 101.201 299.619C101.457 299.915 101.649 300.273 101.777 300.692C101.911 301.106 101.978 301.563 101.978 302.063V307.764H99.8219V302.063C99.8219 301.516 99.6968 301.094 99.4465 300.797C99.1962 300.495 98.815 300.343 98.3028 300.343C97.9303 300.343 97.5811 300.428 97.2552 300.596C96.9292 300.765 96.6208 300.995 96.3298 301.286V307.764H94.1734V294.791H96.3298V299.767ZM113.007 303.94C112.384 303.969 111.86 304.025 111.435 304.106C111.01 304.182 110.67 304.281 110.414 304.403C110.158 304.525 109.974 304.668 109.864 304.831C109.753 304.994 109.698 305.171 109.698 305.363C109.698 305.742 109.809 306.012 110.03 306.175C110.257 306.338 110.551 306.42 110.911 306.42C111.354 306.42 111.735 306.341 112.055 306.184C112.381 306.021 112.698 305.776 113.007 305.45V303.94ZM108.065 300.055C109.096 299.112 110.335 298.641 111.784 298.641C112.308 298.641 112.777 298.728 113.19 298.903C113.603 299.072 113.953 299.31 114.238 299.619C114.523 299.921 114.738 300.285 114.884 300.71C115.035 301.135 115.111 301.6 115.111 302.107V307.764H114.133C113.929 307.764 113.772 307.735 113.662 307.677C113.551 307.613 113.464 307.488 113.4 307.301L113.208 306.655C112.981 306.859 112.759 307.039 112.544 307.197C112.329 307.348 112.105 307.476 111.872 307.581C111.639 307.685 111.389 307.764 111.121 307.816C110.859 307.875 110.568 307.904 110.248 307.904C109.87 307.904 109.52 307.854 109.2 307.755C108.88 307.651 108.604 307.496 108.371 307.293C108.138 307.089 107.958 306.836 107.83 306.533C107.702 306.23 107.638 305.878 107.638 305.477C107.638 305.25 107.675 305.026 107.751 304.804C107.827 304.577 107.949 304.362 108.118 304.158C108.292 303.955 108.516 303.763 108.79 303.582C109.064 303.402 109.398 303.245 109.794 303.111C110.196 302.977 110.661 302.869 111.191 302.788C111.72 302.7 112.326 302.648 113.007 302.631V302.107C113.007 301.507 112.879 301.065 112.623 300.78C112.367 300.489 111.997 300.343 111.514 300.343C111.165 300.343 110.874 300.384 110.641 300.465C110.414 300.547 110.213 300.64 110.038 300.745C109.864 300.844 109.704 300.934 109.558 301.015C109.419 301.097 109.261 301.138 109.087 301.138C108.935 301.138 108.807 301.1 108.703 301.024C108.598 300.943 108.514 300.85 108.45 300.745L108.065 300.055ZM123.558 300.701C123.494 300.783 123.43 300.847 123.366 300.893C123.308 300.94 123.221 300.963 123.104 300.963C122.994 300.963 122.886 300.931 122.781 300.867C122.677 300.797 122.552 300.722 122.406 300.64C122.261 300.553 122.086 300.477 121.882 300.413C121.684 300.343 121.437 300.308 121.14 300.308C120.762 300.308 120.43 300.378 120.145 300.518C119.86 300.652 119.621 300.847 119.429 301.103C119.243 301.359 119.103 301.67 119.01 302.037C118.917 302.398 118.87 302.808 118.87 303.268C118.87 303.745 118.92 304.17 119.019 304.543C119.123 304.915 119.272 305.229 119.464 305.485C119.656 305.736 119.889 305.928 120.162 306.062C120.436 306.19 120.744 306.254 121.088 306.254C121.431 306.254 121.708 306.213 121.917 306.131C122.132 306.044 122.313 305.951 122.458 305.852C122.604 305.747 122.729 305.654 122.834 305.573C122.944 305.485 123.067 305.442 123.201 305.442C123.375 305.442 123.506 305.509 123.593 305.643L124.213 306.428C123.975 306.708 123.716 306.943 123.436 307.135C123.157 307.322 122.866 307.473 122.563 307.589C122.266 307.7 121.958 307.779 121.638 307.825C121.323 307.872 121.009 307.895 120.695 307.895C120.142 307.895 119.621 307.793 119.132 307.589C118.643 307.38 118.215 307.077 117.849 306.681C117.482 306.286 117.191 305.803 116.976 305.232C116.766 304.656 116.661 304.001 116.661 303.268C116.661 302.61 116.755 302.002 116.941 301.443C117.133 300.879 117.412 300.393 117.779 299.985C118.146 299.572 118.6 299.249 119.141 299.016C119.682 298.783 120.305 298.667 121.009 298.667C121.679 298.667 122.263 298.775 122.764 298.99C123.27 299.205 123.724 299.514 124.126 299.915L123.558 300.701ZM134.601 307.764H132.445V300.422H128.289V305.276C128.289 305.555 128.356 305.774 128.49 305.931C128.629 306.088 128.819 306.166 129.057 306.166C129.191 306.166 129.302 306.152 129.389 306.123C129.482 306.088 129.561 306.053 129.625 306.018C129.695 305.983 129.756 305.951 129.808 305.922C129.86 305.887 129.913 305.87 129.965 305.87C130.029 305.87 130.082 305.887 130.122 305.922C130.163 305.951 130.207 305.998 130.253 306.062L130.899 307.109C130.585 307.371 130.224 307.569 129.817 307.703C129.409 307.837 128.987 307.904 128.551 307.904C127.771 307.904 127.171 307.685 126.752 307.249C126.339 306.807 126.133 306.198 126.133 305.424V300.422H125.216C125.099 300.422 125.001 300.384 124.919 300.308C124.838 300.233 124.797 300.119 124.797 299.968V299.112L126.237 298.868L126.691 296.432C126.72 296.316 126.776 296.225 126.857 296.161C126.939 296.097 127.043 296.065 127.171 296.065H128.289V298.885H134.601V307.764ZM134.976 296.161C134.976 296.348 134.939 296.525 134.863 296.694C134.787 296.857 134.685 297 134.557 297.122C134.435 297.244 134.287 297.343 134.112 297.419C133.943 297.488 133.763 297.523 133.571 297.523C133.385 297.523 133.21 297.488 133.047 297.419C132.884 297.343 132.741 297.244 132.619 297.122C132.497 297 132.398 296.857 132.322 296.694C132.253 296.525 132.218 296.348 132.218 296.161C132.218 295.969 132.253 295.792 132.322 295.629C132.398 295.46 132.497 295.315 132.619 295.192C132.741 295.064 132.884 294.965 133.047 294.896C133.21 294.82 133.385 294.782 133.571 294.782C133.763 294.782 133.943 294.82 134.112 294.896C134.287 294.965 134.435 295.064 134.557 295.192C134.685 295.315 134.787 295.46 134.863 295.629C134.939 295.792 134.976 295.969 134.976 296.161ZM144.878 298.807L141.324 307.764H139.369L135.815 298.807H137.596C137.759 298.807 137.893 298.845 137.998 298.92C138.109 298.996 138.181 299.092 138.216 299.208L139.945 303.993C140.038 304.272 140.119 304.545 140.189 304.813C140.259 305.081 140.32 305.349 140.373 305.616C140.431 305.349 140.495 305.081 140.565 304.813C140.635 304.545 140.719 304.272 140.818 303.993L142.581 299.208C142.622 299.092 142.695 298.996 142.8 298.92C142.904 298.845 143.03 298.807 143.175 298.807H144.878ZM151.525 302.255C151.525 301.976 151.484 301.714 151.402 301.469C151.327 301.219 151.21 301.001 151.053 300.815C150.896 300.628 150.695 300.483 150.451 300.378C150.212 300.268 149.933 300.212 149.613 300.212C148.99 300.212 148.498 300.39 148.137 300.745C147.782 301.1 147.555 301.603 147.456 302.255H151.525ZM147.413 303.556C147.448 304.016 147.529 304.414 147.657 304.752C147.785 305.084 147.954 305.36 148.164 305.581C148.373 305.797 148.62 305.96 148.906 306.07C149.197 306.175 149.517 306.227 149.866 306.227C150.215 306.227 150.515 306.187 150.765 306.105C151.021 306.024 151.242 305.934 151.429 305.835C151.621 305.736 151.787 305.645 151.926 305.564C152.072 305.483 152.211 305.442 152.345 305.442C152.526 305.442 152.66 305.509 152.747 305.643L153.367 306.428C153.128 306.708 152.86 306.943 152.564 307.135C152.267 307.322 151.955 307.473 151.629 307.589C151.309 307.7 150.981 307.779 150.643 307.825C150.311 307.872 149.988 307.895 149.674 307.895C149.051 307.895 148.472 307.793 147.937 307.589C147.401 307.38 146.935 307.074 146.54 306.673C146.144 306.265 145.833 305.765 145.606 305.171C145.379 304.572 145.265 303.879 145.265 303.093C145.265 302.482 145.364 301.909 145.562 301.373C145.76 300.832 146.042 300.364 146.409 299.968C146.781 299.566 147.232 299.249 147.762 299.016C148.297 298.783 148.9 298.667 149.569 298.667C150.134 298.667 150.655 298.757 151.132 298.938C151.609 299.118 152.019 299.383 152.363 299.732C152.706 300.076 152.974 300.5 153.166 301.007C153.364 301.507 153.463 302.081 153.463 302.727C153.463 303.053 153.428 303.274 153.358 303.39C153.288 303.501 153.154 303.556 152.956 303.556H147.413ZM165.744 300.701C165.68 300.783 165.616 300.847 165.552 300.893C165.493 300.94 165.406 300.963 165.29 300.963C165.179 300.963 165.071 300.931 164.967 300.867C164.862 300.797 164.737 300.722 164.591 300.64C164.446 300.553 164.271 300.477 164.067 300.413C163.87 300.343 163.622 300.308 163.325 300.308C162.947 300.308 162.615 300.378 162.33 300.518C162.045 300.652 161.806 300.847 161.614 301.103C161.428 301.359 161.288 301.67 161.195 302.037C161.102 302.398 161.056 302.808 161.056 303.268C161.056 303.745 161.105 304.17 161.204 304.543C161.309 304.915 161.457 305.229 161.649 305.485C161.841 305.736 162.074 305.928 162.348 306.062C162.621 306.19 162.93 306.254 163.273 306.254C163.616 306.254 163.893 306.213 164.102 306.131C164.318 306.044 164.498 305.951 164.644 305.852C164.789 305.747 164.914 305.654 165.019 305.573C165.13 305.485 165.252 305.442 165.386 305.442C165.56 305.442 165.691 305.509 165.779 305.643L166.398 306.428C166.16 306.708 165.901 306.943 165.621 307.135C165.342 307.322 165.051 307.473 164.748 307.589C164.452 307.7 164.143 307.779 163.823 307.825C163.509 307.872 163.194 307.895 162.88 307.895C162.327 307.895 161.806 307.793 161.317 307.589C160.829 307.38 160.401 307.077 160.034 306.681C159.667 306.286 159.376 305.803 159.161 305.232C158.952 304.656 158.847 304.001 158.847 303.268C158.847 302.61 158.94 302.002 159.126 301.443C159.318 300.879 159.598 300.393 159.964 299.985C160.331 299.572 160.785 299.249 161.326 299.016C161.867 298.783 162.49 298.667 163.194 298.667C163.864 298.667 164.449 298.775 164.949 298.99C165.456 299.205 165.91 299.514 166.311 299.915L165.744 300.701ZM175.468 298.807V307.764H174.15C173.864 307.764 173.684 307.633 173.608 307.371L173.46 306.655C173.093 307.028 172.689 307.33 172.246 307.563C171.804 307.79 171.283 307.904 170.684 307.904C170.195 307.904 169.761 307.822 169.383 307.659C169.01 307.49 168.696 307.255 168.44 306.952C168.184 306.649 167.989 306.292 167.855 305.878C167.727 305.459 167.663 304.999 167.663 304.499V298.807H169.819V304.499C169.819 305.046 169.945 305.471 170.195 305.774C170.451 306.07 170.832 306.219 171.338 306.219C171.711 306.219 172.06 306.137 172.386 305.974C172.712 305.806 173.021 305.576 173.312 305.285V298.807H175.468ZM183.071 300.553C183.013 300.646 182.952 300.713 182.888 300.754C182.824 300.788 182.742 300.806 182.643 300.806C182.539 300.806 182.425 300.777 182.303 300.719C182.187 300.66 182.05 300.596 181.893 300.527C181.736 300.451 181.555 300.384 181.351 300.326C181.153 300.268 180.918 300.238 180.644 300.238C180.219 300.238 179.885 300.329 179.64 300.509C179.402 300.69 179.282 300.925 179.282 301.216C179.282 301.408 179.343 301.571 179.466 301.705C179.594 301.833 179.76 301.947 179.963 302.046C180.173 302.145 180.408 302.235 180.67 302.316C180.932 302.392 181.197 302.476 181.465 302.569C181.738 302.663 182.006 302.77 182.268 302.893C182.53 303.009 182.763 303.16 182.966 303.346C183.176 303.527 183.342 303.745 183.464 304.001C183.592 304.257 183.656 304.566 183.656 304.927C183.656 305.357 183.578 305.756 183.42 306.123C183.269 306.484 183.042 306.798 182.739 307.066C182.437 307.328 182.061 307.534 181.613 307.685C181.171 307.831 180.659 307.904 180.077 307.904C179.768 307.904 179.466 307.875 179.169 307.816C178.878 307.764 178.595 307.688 178.322 307.589C178.054 307.49 177.804 307.374 177.571 307.24C177.344 307.106 177.143 306.961 176.969 306.804L177.466 305.983C177.53 305.884 177.606 305.808 177.693 305.756C177.781 305.704 177.891 305.677 178.025 305.677C178.159 305.677 178.284 305.715 178.401 305.791C178.523 305.867 178.662 305.948 178.82 306.035C178.977 306.123 179.16 306.204 179.37 306.28C179.585 306.356 179.856 306.393 180.182 306.393C180.438 306.393 180.656 306.364 180.836 306.306C181.023 306.242 181.174 306.161 181.29 306.062C181.412 305.963 181.5 305.849 181.552 305.721C181.61 305.587 181.639 305.45 181.639 305.311C181.639 305.101 181.575 304.93 181.447 304.796C181.325 304.662 181.159 304.545 180.95 304.447C180.746 304.348 180.51 304.26 180.243 304.185C179.981 304.103 179.71 304.016 179.431 303.923C179.157 303.83 178.887 303.722 178.619 303.6C178.357 303.472 178.121 303.312 177.912 303.119C177.708 302.927 177.542 302.692 177.414 302.412C177.292 302.133 177.231 301.795 177.231 301.4C177.231 301.033 177.303 300.684 177.449 300.352C177.594 300.02 177.807 299.732 178.086 299.488C178.371 299.237 178.724 299.04 179.143 298.894C179.567 298.743 180.056 298.667 180.609 298.667C181.226 298.667 181.788 298.769 182.294 298.973C182.801 299.176 183.223 299.444 183.56 299.776L183.071 300.553ZM188.265 307.904C187.485 307.904 186.886 307.685 186.467 307.249C186.053 306.807 185.847 306.198 185.847 305.424V300.422H184.93C184.814 300.422 184.715 300.384 184.633 300.308C184.552 300.233 184.511 300.119 184.511 299.968V299.112L185.951 298.877L186.405 296.432C186.435 296.316 186.49 296.225 186.571 296.161C186.653 296.097 186.758 296.065 186.886 296.065H188.003V298.885H190.395V300.422H188.003V305.276C188.003 305.555 188.07 305.774 188.204 305.931C188.344 306.088 188.533 306.166 188.771 306.166C188.905 306.166 189.016 306.152 189.103 306.123C189.196 306.088 189.275 306.053 189.339 306.018C189.409 305.983 189.47 305.951 189.522 305.922C189.575 305.887 189.627 305.87 189.679 305.87C189.743 305.87 189.796 305.887 189.836 305.922C189.877 305.951 189.921 305.998 189.967 306.062L190.613 307.109C190.299 307.371 189.938 307.569 189.531 307.703C189.123 307.837 188.701 307.904 188.265 307.904ZM195.671 298.667C196.335 298.667 196.937 298.775 197.478 298.99C198.025 299.205 198.491 299.511 198.875 299.907C199.265 300.303 199.565 300.786 199.774 301.356C199.984 301.926 200.089 302.564 200.089 303.268C200.089 303.978 199.984 304.618 199.774 305.189C199.565 305.759 199.265 306.245 198.875 306.647C198.491 307.048 198.025 307.357 197.478 307.572C196.937 307.787 196.335 307.895 195.671 307.895C195.002 307.895 194.394 307.787 193.847 307.572C193.299 307.357 192.831 307.048 192.441 306.647C192.057 306.245 191.757 305.759 191.542 305.189C191.332 304.618 191.227 303.978 191.227 303.268C191.227 302.564 191.332 301.926 191.542 301.356C191.757 300.786 192.057 300.303 192.441 299.907C192.831 299.511 193.299 299.205 193.847 298.99C194.394 298.775 195.002 298.667 195.671 298.667ZM195.671 306.236C196.416 306.236 196.966 305.986 197.321 305.485C197.682 304.985 197.862 304.252 197.862 303.285C197.862 302.319 197.682 301.583 197.321 301.077C196.966 300.57 196.416 300.317 195.671 300.317C194.915 300.317 194.353 300.573 193.986 301.085C193.625 301.592 193.445 302.325 193.445 303.285C193.445 304.246 193.625 304.979 193.986 305.485C194.353 305.986 194.915 306.236 195.671 306.236ZM201.734 307.764V298.807H203.052C203.331 298.807 203.515 298.938 203.602 299.2L203.742 299.863C203.899 299.688 204.062 299.528 204.231 299.383C204.405 299.237 204.589 299.112 204.781 299.008C204.979 298.903 205.188 298.821 205.409 298.763C205.636 298.699 205.884 298.667 206.151 298.667C206.716 298.667 207.179 298.821 207.54 299.13C207.906 299.432 208.18 299.837 208.36 300.343C208.5 300.046 208.674 299.793 208.884 299.584C209.094 299.368 209.323 299.194 209.574 299.06C209.824 298.926 210.089 298.827 210.368 298.763C210.653 298.699 210.939 298.667 211.224 298.667C211.718 298.667 212.158 298.743 212.542 298.894C212.926 299.045 213.249 299.267 213.511 299.558C213.773 299.849 213.971 300.204 214.105 300.623C214.244 301.042 214.314 301.522 214.314 302.063V307.764H212.158V302.063C212.158 301.493 212.033 301.065 211.782 300.78C211.532 300.489 211.166 300.343 210.682 300.343C210.461 300.343 210.255 300.381 210.063 300.457C209.876 300.532 209.71 300.643 209.565 300.788C209.425 300.928 209.315 301.106 209.233 301.321C209.152 301.536 209.111 301.784 209.111 302.063V307.764H206.946V302.063C206.946 301.464 206.824 301.027 206.579 300.754C206.341 300.48 205.988 300.343 205.523 300.343C205.209 300.343 204.915 300.422 204.641 300.579C204.373 300.73 204.123 300.94 203.89 301.208V307.764H201.734ZM222.135 302.255C222.135 301.976 222.094 301.714 222.013 301.469C221.937 301.219 221.82 301.001 221.663 300.815C221.506 300.628 221.305 300.483 221.061 300.378C220.822 300.268 220.543 300.212 220.223 300.212C219.6 300.212 219.108 300.39 218.747 300.745C218.392 301.1 218.165 301.603 218.066 302.255H222.135ZM218.023 303.556C218.058 304.016 218.139 304.414 218.267 304.752C218.395 305.084 218.564 305.36 218.774 305.581C218.983 305.797 219.23 305.96 219.516 306.07C219.807 306.175 220.127 306.227 220.476 306.227C220.825 306.227 221.125 306.187 221.375 306.105C221.631 306.024 221.852 305.934 222.039 305.835C222.231 305.736 222.397 305.645 222.536 305.564C222.682 305.483 222.822 305.442 222.955 305.442C223.136 305.442 223.27 305.509 223.357 305.643L223.977 306.428C223.738 306.708 223.47 306.943 223.174 307.135C222.877 307.322 222.565 307.473 222.239 307.589C221.919 307.7 221.591 307.779 221.253 307.825C220.921 307.872 220.598 307.895 220.284 307.895C219.661 307.895 219.082 307.793 218.547 307.589C218.011 307.38 217.545 307.074 217.15 306.673C216.754 306.265 216.443 305.765 216.216 305.171C215.989 304.572 215.875 303.879 215.875 303.093C215.875 302.482 215.974 301.909 216.172 301.373C216.37 300.832 216.652 300.364 217.019 299.968C217.391 299.566 217.842 299.249 218.372 299.016C218.907 298.783 219.51 298.667 220.179 298.667C220.744 298.667 221.265 298.757 221.742 298.938C222.219 299.118 222.629 299.383 222.973 299.732C223.316 300.076 223.584 300.5 223.776 301.007C223.974 301.507 224.073 302.081 224.073 302.727C224.073 303.053 224.038 303.274 223.968 303.39C223.898 303.501 223.764 303.556 223.567 303.556H218.023ZM227.725 300.361C228.005 299.825 228.336 299.406 228.721 299.104C229.105 298.795 229.559 298.641 230.082 298.641C230.496 298.641 230.827 298.731 231.078 298.911L230.938 300.527C230.909 300.631 230.865 300.707 230.807 300.754C230.755 300.794 230.682 300.815 230.589 300.815C230.502 300.815 230.371 300.8 230.196 300.771C230.027 300.742 229.861 300.727 229.698 300.727C229.46 300.727 229.247 300.762 229.061 300.832C228.875 300.902 228.706 301.004 228.555 301.138C228.409 301.266 228.278 301.423 228.162 301.609C228.051 301.795 227.946 302.008 227.848 302.246V307.764H225.691V298.807H226.957C227.178 298.807 227.332 298.847 227.42 298.929C227.507 299.005 227.565 299.144 227.594 299.348L227.725 300.361Z" fill="#535353"/>
<path d="M333.4 299.723C333.679 299.665 333.947 299.624 334.203 299.601C334.459 299.572 334.706 299.558 334.945 299.558C335.608 299.558 336.193 299.656 336.7 299.854C337.206 300.052 337.631 300.326 337.974 300.675C338.318 301.024 338.577 301.435 338.751 301.906C338.926 302.372 339.013 302.875 339.013 303.416C339.013 304.086 338.894 304.697 338.655 305.25C338.423 305.803 338.097 306.277 337.678 306.673C337.259 307.063 336.761 307.365 336.185 307.581C335.614 307.796 334.992 307.904 334.316 307.904C333.921 307.904 333.545 307.863 333.19 307.781C332.835 307.7 332.5 307.592 332.186 307.458C331.878 307.319 331.59 307.162 331.322 306.987C331.06 306.807 330.824 306.617 330.615 306.42L331.278 305.503C331.418 305.305 331.601 305.206 331.828 305.206C331.974 305.206 332.122 305.253 332.273 305.346C332.425 305.439 332.597 305.541 332.789 305.651C332.986 305.762 333.216 305.864 333.478 305.957C333.746 306.05 334.066 306.097 334.439 306.097C334.834 306.097 335.184 306.033 335.486 305.904C335.789 305.776 336.039 305.599 336.237 305.372C336.441 305.139 336.592 304.866 336.691 304.551C336.796 304.231 336.848 303.885 336.848 303.512C336.848 302.826 336.647 302.29 336.246 301.906C335.85 301.516 335.262 301.321 334.482 301.321C333.883 301.321 333.269 301.432 332.64 301.653L331.296 301.269L332.343 295.14H338.577V296.057C338.577 296.365 338.481 296.615 338.289 296.807C338.097 297 337.771 297.096 337.311 297.096H333.845L333.4 299.723ZM349.674 301.452C349.674 302.552 349.555 303.509 349.316 304.324C349.084 305.133 348.758 305.803 348.339 306.332C347.925 306.862 347.434 307.258 346.863 307.52C346.299 307.776 345.688 307.904 345.03 307.904C344.372 307.904 343.761 307.776 343.197 307.52C342.638 307.258 342.152 306.862 341.739 306.332C341.325 305.803 341.002 305.133 340.769 304.324C340.537 303.509 340.42 302.552 340.42 301.452C340.42 300.346 340.537 299.389 340.769 298.58C341.002 297.771 341.325 297.101 341.739 296.572C342.152 296.042 342.638 295.649 343.197 295.393C343.761 295.131 344.372 295 345.03 295C345.688 295 346.299 295.131 346.863 295.393C347.434 295.649 347.925 296.042 348.339 296.572C348.758 297.101 349.084 297.771 349.316 298.58C349.555 299.389 349.674 300.346 349.674 301.452ZM347.448 301.452C347.448 300.538 347.381 299.782 347.247 299.182C347.114 298.583 346.933 298.105 346.706 297.75C346.485 297.395 346.229 297.148 345.938 297.008C345.647 296.863 345.344 296.79 345.03 296.79C344.721 296.79 344.422 296.863 344.131 297.008C343.845 297.148 343.592 297.395 343.371 297.75C343.15 298.105 342.972 298.583 342.839 299.182C342.711 299.782 342.647 300.538 342.647 301.452C342.647 302.366 342.711 303.122 342.839 303.722C342.972 304.321 343.15 304.799 343.371 305.154C343.592 305.509 343.845 305.759 344.131 305.904C344.422 306.044 344.721 306.114 345.03 306.114C345.344 306.114 345.647 306.044 345.938 305.904C346.229 305.759 346.485 305.509 346.706 305.154C346.933 304.799 347.114 304.321 347.247 303.722C347.381 303.122 347.448 302.366 347.448 301.452Z" fill="#535353"/>
</g>
<g filter="url(#filter1_d_78_2430)">
<rect x="270.5" y="85" width="124" height="48" rx="24" fill="white" shape-rendering="crispEdges"/>
<circle cx="294.5" cy="109" r="16" fill="#7FB519"/>
<circle cx="294.5" cy="109" r="10.4" fill="white"/>
<path d="M294.501 98.3333C288.623 98.3333 283.834 103.123 283.834 109C283.834 114.877 288.623 119.667 294.501 119.667C300.378 119.667 305.167 114.877 305.167 109C305.167 103.123 300.378 98.3333 294.501 98.3333ZM299.599 106.547L293.551 112.595C293.402 112.744 293.199 112.829 292.986 112.829C292.773 112.829 292.57 112.744 292.421 112.595L289.402 109.576C289.093 109.267 289.093 108.755 289.402 108.445C289.711 108.136 290.223 108.136 290.533 108.445L292.986 110.899L298.469 105.416C298.778 105.107 299.29 105.107 299.599 105.416C299.909 105.725 299.909 106.227 299.599 106.547Z" fill="#659711"/>
<path d="M322.9 114L318.7 102.544H321.012L323.532 109.784L323.964 111.12H324.012L324.444 109.8L326.98 102.544H329.252L324.932 114H322.9ZM332.998 114.272C331.702 114.272 330.651 113.861 329.846 113.04C329.046 112.213 328.646 111.152 328.646 109.856C328.646 108.597 329.04 107.547 329.83 106.704C330.624 105.861 331.662 105.44 332.942 105.44C334.142 105.44 335.123 105.813 335.886 106.56C336.654 107.301 337.038 108.24 337.038 109.376V110.304H329.734V109.072H335.014V109.064C334.982 108.509 334.782 108.053 334.414 107.696C334.046 107.333 333.552 107.152 332.934 107.152C332.272 107.152 331.736 107.389 331.326 107.864C330.92 108.333 330.718 108.981 330.718 109.808C330.718 110.677 330.947 111.36 331.406 111.856C331.87 112.347 332.467 112.592 333.198 112.592C333.523 112.592 333.811 112.549 334.062 112.464C334.312 112.379 334.539 112.261 334.742 112.112C334.95 111.957 335.187 111.712 335.454 111.376L336.798 112.368C336.446 112.88 336.091 113.261 335.734 113.512C335.376 113.763 334.984 113.952 334.558 114.08C334.131 114.208 333.611 114.272 332.998 114.272ZM338.314 114V105.72H340.354V107.256L340.122 107H340.41C340.565 106.547 340.858 106.173 341.29 105.88C341.728 105.587 342.192 105.44 342.682 105.44C342.842 105.44 343.002 105.456 343.162 105.488C343.328 105.515 343.477 105.555 343.61 105.608C343.749 105.656 343.818 105.68 343.818 105.68L343.722 107.688C343.722 107.688 343.64 107.659 343.474 107.6C343.309 107.536 343.136 107.485 342.954 107.448C342.773 107.405 342.602 107.384 342.442 107.384C341.872 107.384 341.397 107.595 341.018 108.016C340.64 108.432 340.45 108.987 340.45 109.68V114H338.314ZM344.879 114V105.72H347.015V114H344.879ZM345.951 104.272C345.599 104.272 345.3 104.152 345.055 103.912C344.809 103.667 344.687 103.371 344.687 103.024C344.687 102.667 344.809 102.371 345.055 102.136C345.3 101.901 345.599 101.784 345.951 101.784C346.313 101.784 346.612 101.901 346.847 102.136C347.081 102.371 347.199 102.667 347.199 103.024C347.199 103.371 347.079 103.667 346.839 103.912C346.604 104.152 346.308 104.272 345.951 104.272ZM349.59 114V104.952C349.59 104.104 349.851 103.432 350.374 102.936C350.896 102.435 351.598 102.184 352.478 102.184C352.702 102.184 352.918 102.2 353.126 102.232C353.339 102.264 353.539 102.309 353.726 102.368C353.918 102.427 354.014 102.456 354.014 102.456L353.886 104.128C353.886 104.128 353.824 104.109 353.702 104.072C353.579 104.035 353.443 104.003 353.294 103.976C353.15 103.949 352.995 103.936 352.83 103.936C352.504 103.936 352.24 104.032 352.038 104.224C351.835 104.411 351.734 104.677 351.734 105.024V106.28V106.616V114H349.59ZM356.294 104.272C355.942 104.272 355.643 104.152 355.398 103.912C355.152 103.667 355.03 103.371 355.03 103.024C355.03 102.667 355.152 102.371 355.398 102.136C355.643 101.901 355.942 101.784 356.294 101.784C356.656 101.784 356.955 101.901 357.19 102.136C357.424 102.371 357.542 102.667 357.542 103.024C357.542 103.371 357.422 103.667 357.182 103.912C356.947 104.152 356.651 104.272 356.294 104.272ZM348.214 107.408V105.72H350.662V107.408H348.214ZM350.662 107.408V105.72H356.286V107.408H350.662ZM355.222 114V105.72H357.358V114H355.222ZM363.03 114.272C361.734 114.272 360.683 113.861 359.878 113.04C359.078 112.213 358.678 111.152 358.678 109.856C358.678 108.597 359.073 107.547 359.862 106.704C360.657 105.861 361.694 105.44 362.974 105.44C364.174 105.44 365.155 105.813 365.918 106.56C366.686 107.301 367.07 108.24 367.07 109.376V110.304H359.766V109.072H365.046V109.064C365.014 108.509 364.814 108.053 364.446 107.696C364.078 107.333 363.585 107.152 362.966 107.152C362.305 107.152 361.769 107.389 361.358 107.864C360.953 108.333 360.75 108.981 360.75 109.808C360.75 110.677 360.979 111.36 361.438 111.856C361.902 112.347 362.499 112.592 363.23 112.592C363.555 112.592 363.843 112.549 364.094 112.464C364.345 112.379 364.571 112.261 364.774 112.112C364.982 111.957 365.219 111.712 365.486 111.376L366.83 112.368C366.478 112.88 366.123 113.261 365.766 113.512C365.409 113.763 365.017 113.952 364.59 114.08C364.163 114.208 363.643 114.272 363.03 114.272ZM371.755 114.272C370.624 114.272 369.685 113.869 368.939 113.064C368.197 112.253 367.827 111.189 367.827 109.872C367.827 108.56 368.203 107.496 368.955 106.68C369.707 105.864 370.651 105.456 371.787 105.456C372.368 105.456 372.893 105.581 373.363 105.832C373.837 106.077 374.192 106.397 374.427 106.792H374.483V102.456H376.603V114H374.547V112.592L374.787 112.928H374.491C374.235 113.328 373.864 113.653 373.379 113.904C372.893 114.149 372.352 114.272 371.755 114.272ZM372.243 112.472C372.899 112.472 373.445 112.229 373.883 111.744C374.32 111.259 374.539 110.632 374.539 109.864C374.539 109.091 374.317 108.464 373.875 107.984C373.432 107.504 372.888 107.264 372.243 107.264C371.581 107.264 371.032 107.504 370.595 107.984C370.157 108.464 369.939 109.091 369.939 109.864C369.939 110.627 370.155 111.253 370.587 111.744C371.024 112.229 371.576 112.472 372.243 112.472Z" fill="#1A1A1A"/>
</g>
</g>
<defs>
<filter id="filter0_d_78_2430" x="-73.9326" y="100.045" width="483.91" height="281.562" filterUnits="userSpaceOnUse" color-interpolation-filters="sRGB">
<feFlood flood-opacity="0" result="BackgroundImageFix"/>
<feColorMatrix in="SourceAlpha" type="matrix" values="0 0 0 0 0 0 0 0 0 0 0 0 0 0 0 0 0 0 127 0" result="hardAlpha"/>
<feOffset dy="9.97753"/>
<feGaussianBlur stdDeviation="14.9663"/>
<feComposite in2="hardAlpha" operator="out"/>
<feColorMatrix type="matrix" values="0 0 0 0 0.271354 0 0 0 0 0.271354 0 0 0 0 0.3125 0 0 0 0.1 0"/>
<feBlend mode="normal" in2="BackgroundImageFix" result="effect1_dropShadow_78_2430"/>
<feBlend mode="normal" in="SourceGraphic" in2="effect1_dropShadow_78_2430" result="shape"/>
</filter>
<filter id="filter1_d_78_2430" x="220.5" y="45" width="224" height="148" filterUnits="userSpaceOnUse" color-interpolation-filters="sRGB">
<feFlood flood-opacity="0" result="BackgroundImageFix"/>
<feColorMatrix in="SourceAlpha" type="matrix" values="0 0 0 0 0 0 0 0 0 0 0 0 0 0 0 0 0 0 127 0" result="hardAlpha"/>
<feOffset dy="10"/>
<feGaussianBlur stdDeviation="25"/>
<feComposite in2="hardAlpha" operator="out"/>
<feColorMatrix type="matrix" values="0 0 0 0 0.568627 0 0 0 0 0.568627 0 0 0 0 0.568627 0 0 0 0.4 0"/>
<feBlend mode="normal" in2="BackgroundImageFix" result="effect1_dropShadow_78_2430"/>
<feBlend mode="normal" in="SourceGraphic" in2="effect1_dropShadow_78_2430" result="shape"/>
</filter>
<clipPath id="clip0_78_2430">
<rect width="426.605" height="384" rx="12" fill="white"/>
</clipPath>
</defs>
</svg>
