<svg width="427" height="384" viewBox="0 0 427 384" fill="none" xmlns="http://www.w3.org/2000/svg">
<g clip-path="url(#clip0_78_2309)">
<rect width="426.605" height="384" rx="12" fill="#F3F5F7"/>
<g filter="url(#filter0_d_78_2309)">
<rect x="23.6045" y="60" width="380" height="314" rx="8" fill="white" shape-rendering="crispEdges"/>
<path d="M53.3205 98.02C53.3205 98.98 53.1645 99.865 52.8525 100.675C52.5405 101.485 52.0995 102.184 51.5295 102.772C50.9655 103.354 50.2845 103.81 49.4865 104.14C48.6945 104.47 47.8125 104.635 46.8405 104.635C45.8745 104.635 44.9925 104.47 44.1945 104.14C43.4025 103.81 42.7215 103.354 42.1515 102.772C41.5815 102.184 41.1405 101.485 40.8285 100.675C40.5165 99.865 40.3605 98.98 40.3605 98.02C40.3605 97.06 40.5165 96.175 40.8285 95.365C41.1405 94.555 41.5815 93.856 42.1515 93.268C42.7215 92.68 43.4025 92.221 44.1945 91.891C44.9925 91.561 45.8745 91.396 46.8405 91.396C47.8125 91.396 48.6945 91.561 49.4865 91.891C50.2845 92.221 50.9655 92.68 51.5295 93.268C52.0995 93.856 52.5405 94.555 52.8525 95.365C53.1645 96.175 53.3205 97.06 53.3205 98.02ZM51.1695 98.02C51.1695 97.276 51.0675 96.607 50.8635 96.013C50.6655 95.419 50.3775 94.915 49.9995 94.501C49.6275 94.087 49.1745 93.769 48.6405 93.547C48.1065 93.325 47.5065 93.214 46.8405 93.214C46.1805 93.214 45.5835 93.325 45.0495 93.547C44.5155 93.769 44.0595 94.087 43.6815 94.501C43.3035 94.915 43.0125 95.419 42.8085 96.013C42.6045 96.607 42.5025 97.276 42.5025 98.02C42.5025 98.77 42.6045 99.442 42.8085 100.036C43.0125 100.63 43.3035 101.134 43.6815 101.548C44.0595 101.956 44.5155 102.271 45.0495 102.493C45.5835 102.709 46.1805 102.817 46.8405 102.817C47.5065 102.817 48.1065 102.709 48.6405 102.493C49.1745 102.271 49.6275 101.956 49.9995 101.548C50.3775 101.134 50.6655 100.63 50.8635 100.036C51.0675 99.442 51.1695 98.77 51.1695 98.02ZM56.9367 97.021C57.2247 96.439 57.5727 95.983 57.9807 95.653C58.3887 95.317 58.8777 95.149 59.4477 95.149C59.6457 95.149 59.8317 95.173 60.0057 95.221C60.1797 95.263 60.3357 95.329 60.4737 95.419L60.3387 96.877C60.3147 96.979 60.2757 97.051 60.2217 97.093C60.1737 97.129 60.1077 97.147 60.0237 97.147C59.9337 97.147 59.8047 97.132 59.6367 97.102C59.4687 97.066 59.2917 97.048 59.1057 97.048C58.8357 97.048 58.5957 97.087 58.3857 97.165C58.1817 97.243 57.9957 97.357 57.8277 97.507C57.6657 97.657 57.5217 97.84 57.3957 98.056C57.2697 98.272 57.1527 98.518 57.0447 98.794V104.5H55.1097V95.32H56.2347C56.4387 95.32 56.5797 95.359 56.6577 95.437C56.7357 95.509 56.7897 95.638 56.8197 95.824L56.9367 97.021ZM67.3144 97.579C67.0444 97.231 66.7474 96.988 66.4234 96.85C66.0994 96.712 65.7484 96.643 65.3704 96.643C64.6144 96.643 64.0234 96.922 63.5974 97.48C63.1714 98.032 62.9584 98.851 62.9584 99.937C62.9584 100.501 63.0064 100.984 63.1024 101.386C63.1984 101.782 63.3364 102.106 63.5164 102.358C63.6964 102.61 63.9154 102.793 64.1734 102.907C64.4314 103.021 64.7224 103.078 65.0464 103.078C65.5384 103.078 65.9614 102.973 66.3154 102.763C66.6754 102.547 67.0084 102.244 67.3144 101.854V97.579ZM69.2494 91.18V104.5H68.0794C67.8214 104.5 67.6564 104.377 67.5844 104.131L67.4134 103.132C67.0294 103.582 66.5914 103.945 66.0994 104.221C65.6134 104.497 65.0464 104.635 64.3984 104.635C63.8824 104.635 63.4144 104.533 62.9944 104.329C62.5744 104.119 62.2144 103.816 61.9144 103.42C61.6144 103.024 61.3804 102.535 61.2124 101.953C61.0504 101.365 60.9694 100.693 60.9694 99.937C60.9694 99.253 61.0594 98.62 61.2394 98.038C61.4254 97.456 61.6894 96.952 62.0314 96.526C62.3734 96.094 62.7874 95.758 63.2734 95.518C63.7654 95.272 64.3144 95.149 64.9204 95.149C65.4604 95.149 65.9194 95.236 66.2974 95.41C66.6754 95.578 67.0144 95.815 67.3144 96.121V91.18H69.2494ZM77.6365 98.875C77.6365 98.551 77.5885 98.251 77.4925 97.975C77.4025 97.693 77.2675 97.45 77.0875 97.246C76.9075 97.036 76.6825 96.874 76.4125 96.76C76.1485 96.64 75.8425 96.58 75.4945 96.58C74.7925 96.58 74.2405 96.781 73.8385 97.183C73.4365 97.585 73.1815 98.149 73.0735 98.875H77.6365ZM73.0195 100.063C73.0435 100.585 73.1245 101.038 73.2625 101.422C73.4005 101.8 73.5835 102.115 73.8115 102.367C74.0455 102.619 74.3215 102.808 74.6395 102.934C74.9635 103.054 75.3235 103.114 75.7195 103.114C76.0975 103.114 76.4245 103.072 76.7005 102.988C76.9765 102.898 77.2165 102.802 77.4205 102.7C77.6245 102.592 77.7985 102.496 77.9425 102.412C78.0865 102.322 78.2185 102.277 78.3385 102.277C78.4945 102.277 78.6145 102.337 78.6985 102.457L79.2475 103.168C79.0195 103.438 78.7615 103.666 78.4735 103.852C78.1855 104.038 77.8795 104.191 77.5555 104.311C77.2315 104.425 76.8985 104.506 76.5565 104.554C76.2145 104.608 75.8815 104.635 75.5575 104.635C74.9215 104.635 74.3305 104.53 73.7845 104.32C73.2445 104.104 72.7735 103.789 72.3715 103.375C71.9755 102.961 71.6635 102.448 71.4355 101.836C71.2135 101.224 71.1025 100.519 71.1025 99.721C71.1025 99.085 71.2015 98.491 71.3995 97.939C71.6035 97.387 71.8915 96.907 72.2635 96.499C72.6415 96.091 73.0975 95.77 73.6315 95.536C74.1715 95.296 74.7805 95.176 75.4585 95.176C76.0225 95.176 76.5445 95.269 77.0245 95.455C77.5045 95.635 77.9185 95.902 78.2665 96.256C78.6145 96.61 78.8845 97.045 79.0765 97.561C79.2745 98.071 79.3735 98.653 79.3735 99.307C79.3735 99.607 79.3405 99.808 79.2745 99.91C79.2085 100.012 79.0885 100.063 78.9145 100.063H73.0195ZM83.005 97.021C83.293 96.439 83.641 95.983 84.049 95.653C84.457 95.317 84.946 95.149 85.516 95.149C85.714 95.149 85.9 95.173 86.074 95.221C86.248 95.263 86.404 95.329 86.542 95.419L86.407 96.877C86.383 96.979 86.344 97.051 86.29 97.093C86.242 97.129 86.176 97.147 86.092 97.147C86.002 97.147 85.873 97.132 85.705 97.102C85.537 97.066 85.36 97.048 85.174 97.048C84.904 97.048 84.664 97.087 84.454 97.165C84.25 97.243 84.064 97.357 83.896 97.507C83.734 97.657 83.59 97.84 83.464 98.056C83.338 98.272 83.221 98.518 83.113 98.794V104.5H81.178V95.32H82.303C82.507 95.32 82.648 95.359 82.726 95.437C82.804 95.509 82.858 95.638 82.888 95.824L83.005 97.021ZM104.455 98.02C104.455 98.98 104.299 99.865 103.987 100.675C103.675 101.485 103.234 102.184 102.664 102.772C102.1 103.354 101.419 103.81 100.621 104.14C99.8293 104.47 98.9473 104.635 97.9753 104.635C97.0093 104.635 96.1273 104.47 95.3293 104.14C94.5373 103.81 93.8563 103.354 93.2863 102.772C92.7163 102.184 92.2753 101.485 91.9633 100.675C91.6513 99.865 91.4953 98.98 91.4953 98.02C91.4953 97.06 91.6513 96.175 91.9633 95.365C92.2753 94.555 92.7163 93.856 93.2863 93.268C93.8563 92.68 94.5373 92.221 95.3293 91.891C96.1273 91.561 97.0093 91.396 97.9753 91.396C98.9473 91.396 99.8293 91.561 100.621 91.891C101.419 92.221 102.1 92.68 102.664 93.268C103.234 93.856 103.675 94.555 103.987 95.365C104.299 96.175 104.455 97.06 104.455 98.02ZM102.304 98.02C102.304 97.276 102.202 96.607 101.998 96.013C101.8 95.419 101.512 94.915 101.134 94.501C100.762 94.087 100.309 93.769 99.7753 93.547C99.2413 93.325 98.6413 93.214 97.9753 93.214C97.3153 93.214 96.7183 93.325 96.1843 93.547C95.6503 93.769 95.1943 94.087 94.8163 94.501C94.4383 94.915 94.1473 95.419 93.9433 96.013C93.7393 96.607 93.6373 97.276 93.6373 98.02C93.6373 98.77 93.7393 99.442 93.9433 100.036C94.1473 100.63 94.4383 101.134 94.8163 101.548C95.1943 101.956 95.6503 102.271 96.1843 102.493C96.7183 102.709 97.3153 102.817 97.9753 102.817C98.6413 102.817 99.2413 102.709 99.7753 102.493C100.309 102.271 100.762 101.956 101.134 101.548C101.512 101.134 101.8 100.63 101.998 100.036C102.202 99.442 102.304 98.77 102.304 98.02ZM114.449 95.32L110.759 104.5H109.013L105.323 95.32H106.916C107.066 95.32 107.189 95.359 107.285 95.437C107.387 95.509 107.453 95.596 107.483 95.698L109.517 101.044C109.601 101.296 109.676 101.545 109.742 101.791C109.808 102.037 109.865 102.286 109.913 102.538C109.961 102.286 110.018 102.04 110.084 101.8C110.156 101.554 110.234 101.302 110.318 101.044L112.388 95.698C112.424 95.59 112.49 95.5 112.586 95.428C112.682 95.356 112.799 95.32 112.937 95.32H114.449ZM121.529 98.875C121.529 98.551 121.481 98.251 121.385 97.975C121.295 97.693 121.16 97.45 120.98 97.246C120.8 97.036 120.575 96.874 120.305 96.76C120.041 96.64 119.735 96.58 119.387 96.58C118.685 96.58 118.133 96.781 117.731 97.183C117.329 97.585 117.074 98.149 116.966 98.875H121.529ZM116.912 100.063C116.936 100.585 117.017 101.038 117.155 101.422C117.293 101.8 117.476 102.115 117.704 102.367C117.938 102.619 118.214 102.808 118.532 102.934C118.856 103.054 119.216 103.114 119.612 103.114C119.99 103.114 120.317 103.072 120.593 102.988C120.869 102.898 121.109 102.802 121.313 102.7C121.517 102.592 121.691 102.496 121.835 102.412C121.979 102.322 122.111 102.277 122.231 102.277C122.387 102.277 122.507 102.337 122.591 102.457L123.14 103.168C122.912 103.438 122.654 103.666 122.366 103.852C122.078 104.038 121.772 104.191 121.448 104.311C121.124 104.425 120.791 104.506 120.449 104.554C120.107 104.608 119.774 104.635 119.45 104.635C118.814 104.635 118.223 104.53 117.677 104.32C117.137 104.104 116.666 103.789 116.264 103.375C115.868 102.961 115.556 102.448 115.328 101.836C115.106 101.224 114.995 100.519 114.995 99.721C114.995 99.085 115.094 98.491 115.292 97.939C115.496 97.387 115.784 96.907 116.156 96.499C116.534 96.091 116.99 95.77 117.524 95.536C118.064 95.296 118.673 95.176 119.351 95.176C119.915 95.176 120.437 95.269 120.917 95.455C121.397 95.635 121.811 95.902 122.159 96.256C122.507 96.61 122.777 97.045 122.969 97.561C123.167 98.071 123.266 98.653 123.266 99.307C123.266 99.607 123.233 99.808 123.167 99.91C123.101 100.012 122.981 100.063 122.807 100.063H116.912ZM126.898 97.021C127.186 96.439 127.534 95.983 127.942 95.653C128.35 95.317 128.839 95.149 129.409 95.149C129.607 95.149 129.793 95.173 129.967 95.221C130.141 95.263 130.297 95.329 130.435 95.419L130.3 96.877C130.276 96.979 130.237 97.051 130.183 97.093C130.135 97.129 130.069 97.147 129.985 97.147C129.895 97.147 129.766 97.132 129.598 97.102C129.43 97.066 129.253 97.048 129.067 97.048C128.797 97.048 128.557 97.087 128.347 97.165C128.143 97.243 127.957 97.357 127.789 97.507C127.627 97.657 127.483 97.84 127.357 98.056C127.231 98.272 127.114 98.518 127.006 98.794V104.5H125.071V95.32H126.196C126.4 95.32 126.541 95.359 126.619 95.437C126.697 95.509 126.751 95.638 126.781 95.824L126.898 97.021ZM139.797 95.32L136.107 104.5H134.361L130.671 95.32H132.264C132.414 95.32 132.537 95.359 132.633 95.437C132.735 95.509 132.801 95.596 132.831 95.698L134.865 101.044C134.949 101.296 135.024 101.545 135.09 101.791C135.156 102.037 135.213 102.286 135.261 102.538C135.309 102.286 135.366 102.04 135.432 101.8C135.504 101.554 135.582 101.302 135.666 101.044L137.736 95.698C137.772 95.59 137.838 95.5 137.934 95.428C138.03 95.356 138.147 95.32 138.285 95.32H139.797ZM143.135 95.32V104.5H141.2V95.32H143.135ZM143.459 92.548C143.459 92.722 143.423 92.887 143.351 93.043C143.285 93.199 143.192 93.337 143.072 93.457C142.952 93.571 142.811 93.664 142.649 93.736C142.493 93.802 142.325 93.835 142.145 93.835C141.971 93.835 141.806 93.802 141.65 93.736C141.5 93.664 141.368 93.571 141.254 93.457C141.14 93.337 141.047 93.199 140.975 93.043C140.909 92.887 140.876 92.722 140.876 92.548C140.876 92.368 140.909 92.2 140.975 92.044C141.047 91.888 141.14 91.753 141.254 91.639C141.368 91.519 141.5 91.426 141.65 91.36C141.806 91.288 141.971 91.252 142.145 91.252C142.325 91.252 142.493 91.288 142.649 91.36C142.811 91.426 142.952 91.519 143.072 91.639C143.192 91.753 143.285 91.888 143.351 92.044C143.423 92.2 143.459 92.368 143.459 92.548ZM151.588 98.875C151.588 98.551 151.54 98.251 151.444 97.975C151.354 97.693 151.219 97.45 151.039 97.246C150.859 97.036 150.634 96.874 150.364 96.76C150.1 96.64 149.794 96.58 149.446 96.58C148.744 96.58 148.192 96.781 147.79 97.183C147.388 97.585 147.133 98.149 147.025 98.875H151.588ZM146.971 100.063C146.995 100.585 147.076 101.038 147.214 101.422C147.352 101.8 147.535 102.115 147.763 102.367C147.997 102.619 148.273 102.808 148.591 102.934C148.915 103.054 149.275 103.114 149.671 103.114C150.049 103.114 150.376 103.072 150.652 102.988C150.928 102.898 151.168 102.802 151.372 102.7C151.576 102.592 151.75 102.496 151.894 102.412C152.038 102.322 152.17 102.277 152.29 102.277C152.446 102.277 152.566 102.337 152.65 102.457L153.199 103.168C152.971 103.438 152.713 103.666 152.425 103.852C152.137 104.038 151.831 104.191 151.507 104.311C151.183 104.425 150.85 104.506 150.508 104.554C150.166 104.608 149.833 104.635 149.509 104.635C148.873 104.635 148.282 104.53 147.736 104.32C147.196 104.104 146.725 103.789 146.323 103.375C145.927 102.961 145.615 102.448 145.387 101.836C145.165 101.224 145.054 100.519 145.054 99.721C145.054 99.085 145.153 98.491 145.351 97.939C145.555 97.387 145.843 96.907 146.215 96.499C146.593 96.091 147.049 95.77 147.583 95.536C148.123 95.296 148.732 95.176 149.41 95.176C149.974 95.176 150.496 95.269 150.976 95.455C151.456 95.635 151.87 95.902 152.218 96.256C152.566 96.61 152.836 97.045 153.028 97.561C153.226 98.071 153.325 98.653 153.325 99.307C153.325 99.607 153.292 99.808 153.226 99.91C153.16 100.012 153.04 100.063 152.866 100.063H146.971ZM167.921 95.32L164.978 104.5H163.439C163.259 104.5 163.133 104.383 163.061 104.149L161.234 98.434C161.186 98.272 161.141 98.11 161.099 97.948C161.063 97.786 161.03 97.627 161 97.471C160.934 97.795 160.853 98.119 160.757 98.443L158.903 104.149C158.837 104.383 158.696 104.5 158.48 104.5H157.013L154.07 95.32H155.6C155.75 95.32 155.873 95.359 155.969 95.437C156.071 95.509 156.137 95.596 156.167 95.698L157.697 101.044C157.757 101.29 157.808 101.53 157.85 101.764C157.898 101.992 157.94 102.22 157.976 102.448C158.036 102.22 158.099 101.992 158.165 101.764C158.231 101.53 158.3 101.29 158.372 101.044L160.091 95.671C160.121 95.563 160.181 95.476 160.271 95.41C160.367 95.338 160.481 95.302 160.613 95.302H161.459C161.597 95.302 161.714 95.338 161.81 95.41C161.906 95.476 161.969 95.563 161.999 95.671L163.673 101.044C163.745 101.29 163.811 101.53 163.871 101.764C163.937 101.998 163.997 102.232 164.051 102.466C164.093 102.238 164.138 102.007 164.186 101.773C164.234 101.539 164.291 101.296 164.357 101.044L165.914 95.698C165.95 95.59 166.016 95.5 166.112 95.428C166.208 95.356 166.325 95.32 166.463 95.32H167.921ZM184.417 98.119V103.249C183.127 104.179 181.627 104.644 179.917 104.644C178.867 104.644 177.916 104.482 177.064 104.158C176.218 103.828 175.495 103.372 174.895 102.79C174.295 102.202 173.833 101.503 173.509 100.693C173.185 99.883 173.023 98.992 173.023 98.02C173.023 97.042 173.179 96.148 173.491 95.338C173.803 94.522 174.25 93.823 174.832 93.241C175.414 92.653 176.116 92.2 176.938 91.882C177.76 91.558 178.684 91.396 179.71 91.396C180.232 91.396 180.715 91.438 181.159 91.522C181.609 91.6 182.026 91.711 182.41 91.855C182.794 91.999 183.148 92.173 183.472 92.377C183.796 92.581 184.093 92.809 184.363 93.061L183.76 94.024C183.664 94.174 183.541 94.267 183.391 94.303C183.241 94.339 183.079 94.303 182.905 94.195C182.731 94.093 182.545 93.985 182.347 93.871C182.155 93.757 181.933 93.652 181.681 93.556C181.429 93.454 181.138 93.373 180.808 93.313C180.478 93.247 180.088 93.214 179.638 93.214C178.954 93.214 178.336 93.328 177.784 93.556C177.238 93.778 176.77 94.099 176.38 94.519C175.99 94.933 175.69 95.437 175.48 96.031C175.27 96.625 175.165 97.288 175.165 98.02C175.165 98.794 175.276 99.487 175.498 100.099C175.72 100.705 176.035 101.221 176.443 101.647C176.851 102.067 177.343 102.388 177.919 102.61C178.501 102.832 179.149 102.943 179.863 102.943C180.397 102.943 180.871 102.886 181.285 102.772C181.705 102.658 182.116 102.499 182.518 102.295V99.721H180.709C180.571 99.721 180.463 99.685 180.385 99.613C180.307 99.535 180.268 99.436 180.268 99.316V98.119H184.417ZM188.228 97.021C188.516 96.439 188.864 95.983 189.272 95.653C189.68 95.317 190.169 95.149 190.739 95.149C190.937 95.149 191.123 95.173 191.297 95.221C191.471 95.263 191.627 95.329 191.765 95.419L191.63 96.877C191.606 96.979 191.567 97.051 191.513 97.093C191.465 97.129 191.399 97.147 191.315 97.147C191.225 97.147 191.096 97.132 190.928 97.102C190.76 97.066 190.583 97.048 190.397 97.048C190.127 97.048 189.887 97.087 189.677 97.165C189.473 97.243 189.287 97.357 189.119 97.507C188.957 97.657 188.813 97.84 188.687 98.056C188.561 98.272 188.444 98.518 188.336 98.794V104.5H186.401V95.32H187.526C187.73 95.32 187.871 95.359 187.949 95.437C188.027 95.509 188.081 95.638 188.111 95.824L188.228 97.021ZM197.81 100.486C197.12 100.51 196.538 100.567 196.064 100.657C195.59 100.741 195.206 100.852 194.912 100.99C194.618 101.122 194.405 101.281 194.273 101.467C194.147 101.653 194.084 101.857 194.084 102.079C194.084 102.295 194.117 102.481 194.183 102.637C194.255 102.787 194.351 102.913 194.471 103.015C194.597 103.111 194.741 103.183 194.903 103.231C195.071 103.273 195.254 103.294 195.452 103.294C195.956 103.294 196.388 103.201 196.748 103.015C197.114 102.823 197.468 102.547 197.81 102.187V100.486ZM192.68 96.598C193.718 95.632 194.954 95.149 196.388 95.149C196.916 95.149 197.384 95.236 197.792 95.41C198.206 95.578 198.551 95.818 198.827 96.13C199.109 96.442 199.322 96.814 199.466 97.246C199.616 97.672 199.691 98.146 199.691 98.668V104.5H198.827C198.641 104.5 198.5 104.473 198.404 104.419C198.308 104.359 198.227 104.242 198.161 104.068L197.972 103.321C197.738 103.531 197.507 103.72 197.279 103.888C197.051 104.05 196.814 104.188 196.568 104.302C196.328 104.416 196.067 104.5 195.785 104.554C195.509 104.614 195.203 104.644 194.867 104.644C194.495 104.644 194.147 104.593 193.823 104.491C193.505 104.389 193.229 104.236 192.995 104.032C192.761 103.822 192.575 103.564 192.437 103.258C192.305 102.952 192.239 102.592 192.239 102.178C192.239 101.824 192.332 101.479 192.518 101.143C192.71 100.807 193.022 100.507 193.454 100.243C193.892 99.973 194.465 99.751 195.173 99.577C195.887 99.403 196.766 99.304 197.81 99.28V98.668C197.81 98.008 197.669 97.516 197.387 97.192C197.105 96.868 196.691 96.706 196.145 96.706C195.773 96.706 195.461 96.754 195.209 96.85C194.957 96.94 194.738 97.039 194.552 97.147C194.366 97.255 194.201 97.357 194.057 97.453C193.913 97.543 193.76 97.588 193.598 97.588C193.466 97.588 193.352 97.555 193.256 97.489C193.166 97.417 193.091 97.33 193.031 97.228L192.68 96.598ZM203.892 102.196C204.162 102.544 204.456 102.79 204.774 102.934C205.098 103.072 205.455 103.141 205.845 103.141C206.601 103.141 207.189 102.865 207.609 102.313C208.035 101.761 208.248 100.939 208.248 99.847C208.248 99.283 208.2 98.803 208.104 98.407C208.008 98.005 207.87 97.678 207.69 97.426C207.51 97.174 207.291 96.991 207.033 96.877C206.775 96.763 206.484 96.706 206.16 96.706C205.668 96.706 205.242 96.814 204.882 97.03C204.528 97.24 204.198 97.543 203.892 97.939V102.196ZM203.793 96.652C204.177 96.202 204.612 95.839 205.098 95.563C205.59 95.287 206.16 95.149 206.808 95.149C207.324 95.149 207.792 95.254 208.212 95.464C208.632 95.668 208.992 95.968 209.292 96.364C209.592 96.76 209.823 97.252 209.985 97.84C210.153 98.422 210.237 99.091 210.237 99.847C210.237 100.525 210.144 101.158 209.958 101.746C209.778 102.328 209.517 102.835 209.175 103.267C208.833 103.693 208.419 104.029 207.933 104.275C207.447 104.515 206.898 104.635 206.286 104.635C205.746 104.635 205.287 104.548 204.909 104.374C204.537 104.2 204.198 103.96 203.892 103.654V107.551H201.957V95.32H203.127C203.391 95.32 203.559 95.443 203.631 95.689L203.793 96.652ZM214.052 96.409C214.43 96.037 214.844 95.74 215.294 95.518C215.744 95.29 216.269 95.176 216.869 95.176C217.373 95.176 217.814 95.26 218.192 95.428C218.576 95.596 218.897 95.833 219.155 96.139C219.419 96.445 219.617 96.814 219.749 97.246C219.881 97.672 219.947 98.143 219.947 98.659V104.5H218.021V98.659C218.021 98.041 217.877 97.561 217.589 97.219C217.307 96.877 216.875 96.706 216.293 96.706C215.861 96.706 215.459 96.805 215.087 97.003C214.721 97.201 214.376 97.471 214.052 97.813V104.5H212.117V91.18H214.052V96.409Z" fill="black"/>
<rect x="232.604" y="84" width="155" height="28" rx="8" fill="#FAFAFA"/>
<path d="M256.438 91.3334H244.771C243.851 91.3334 243.104 92.0796 243.104 93V104.667C243.104 105.587 243.851 106.333 244.771 106.333H256.438C257.358 106.333 258.104 105.587 258.104 104.667V93C258.104 92.0796 257.358 91.3334 256.438 91.3334Z" stroke="#2B2B2B" stroke-width="1.5" stroke-linecap="round" stroke-linejoin="round"/>
<path d="M253.938 89.6666V93" stroke="#2B2B2B" stroke-width="1.5" stroke-linecap="round" stroke-linejoin="round"/>
<path d="M247.271 89.6666V93" stroke="#2B2B2B" stroke-width="1.5" stroke-linecap="round" stroke-linejoin="round"/>
<path d="M243.104 96.3334H258.104" stroke="#2B2B2B" stroke-width="1.5" stroke-linecap="round" stroke-linejoin="round"/>
<path d="M280.668 94.61H277.42V103.5H276.069V94.61H272.814V93.469H280.668V94.61ZM282.993 97.354C283.296 97.032 283.632 96.7753 284.001 96.584C284.37 96.3927 284.794 96.297 285.275 96.297C285.662 96.297 286.003 96.3623 286.297 96.493C286.596 96.619 286.843 96.801 287.039 97.039C287.24 97.2723 287.391 97.5547 287.494 97.886C287.597 98.2173 287.648 98.5837 287.648 98.985V103.5H286.395V98.985C286.395 98.4483 286.271 98.033 286.024 97.739C285.781 97.4403 285.41 97.291 284.911 97.291C284.542 97.291 284.197 97.3797 283.875 97.557C283.558 97.7343 283.264 97.9747 282.993 98.278V103.5H281.74V93.189H282.993V97.354ZM290.863 96.409V103.5H289.617V96.409H290.863ZM291.129 94.183C291.129 94.3043 291.103 94.4187 291.052 94.526C291.005 94.6287 290.94 94.722 290.856 94.806C290.776 94.8853 290.681 94.9483 290.569 94.995C290.461 95.0417 290.347 95.065 290.226 95.065C290.104 95.065 289.99 95.0417 289.883 94.995C289.78 94.9483 289.689 94.8853 289.61 94.806C289.53 94.722 289.467 94.6287 289.421 94.526C289.374 94.4187 289.351 94.3043 289.351 94.183C289.351 94.0617 289.374 93.9473 289.421 93.84C289.467 93.728 289.53 93.6323 289.61 93.553C289.689 93.469 289.78 93.4037 289.883 93.357C289.99 93.3103 290.104 93.287 290.226 93.287C290.347 93.287 290.461 93.3103 290.569 93.357C290.681 93.4037 290.776 93.469 290.856 93.553C290.94 93.6323 291.005 93.728 291.052 93.84C291.103 93.9473 291.129 94.0617 291.129 94.183ZM297.04 97.578C296.984 97.6807 296.898 97.732 296.781 97.732C296.711 97.732 296.632 97.7063 296.543 97.655C296.454 97.6037 296.345 97.5477 296.214 97.487C296.088 97.4217 295.936 97.3633 295.759 97.312C295.582 97.256 295.372 97.228 295.129 97.228C294.919 97.228 294.73 97.256 294.562 97.312C294.394 97.3633 294.249 97.4357 294.128 97.529C294.011 97.6223 293.92 97.732 293.855 97.858C293.794 97.9793 293.764 98.1123 293.764 98.257C293.764 98.439 293.815 98.5907 293.918 98.712C294.025 98.8333 294.165 98.9383 294.338 99.027C294.511 99.1157 294.707 99.195 294.926 99.265C295.145 99.3303 295.369 99.4027 295.598 99.482C295.831 99.5567 296.058 99.6407 296.277 99.734C296.496 99.8273 296.692 99.944 296.865 100.084C297.038 100.224 297.175 100.397 297.278 100.602C297.385 100.803 297.439 101.045 297.439 101.33C297.439 101.657 297.381 101.96 297.264 102.24C297.147 102.515 296.975 102.756 296.746 102.961C296.517 103.162 296.237 103.32 295.906 103.437C295.575 103.554 295.192 103.612 294.758 103.612C294.263 103.612 293.815 103.533 293.414 103.374C293.013 103.211 292.672 103.003 292.392 102.751L292.686 102.275C292.723 102.214 292.768 102.168 292.819 102.135C292.87 102.102 292.936 102.086 293.015 102.086C293.099 102.086 293.188 102.119 293.281 102.184C293.374 102.249 293.486 102.322 293.617 102.401C293.752 102.48 293.916 102.553 294.107 102.618C294.298 102.683 294.536 102.716 294.821 102.716C295.064 102.716 295.276 102.686 295.458 102.625C295.64 102.56 295.792 102.473 295.913 102.366C296.034 102.259 296.123 102.135 296.179 101.995C296.24 101.855 296.27 101.706 296.27 101.547C296.27 101.351 296.216 101.19 296.109 101.064C296.006 100.933 295.869 100.824 295.696 100.735C295.523 100.642 295.325 100.562 295.101 100.497C294.882 100.427 294.655 100.355 294.422 100.28C294.193 100.205 293.967 100.121 293.743 100.028C293.524 99.93 293.328 99.8087 293.155 99.664C292.982 99.5193 292.842 99.342 292.735 99.132C292.632 98.9173 292.581 98.6583 292.581 98.355C292.581 98.0843 292.637 97.8253 292.749 97.578C292.861 97.326 293.024 97.1067 293.239 96.92C293.454 96.7287 293.717 96.577 294.03 96.465C294.343 96.353 294.7 96.297 295.101 96.297C295.568 96.297 295.985 96.3717 296.354 96.521C296.727 96.6657 297.049 96.8663 297.32 97.123L297.04 97.578ZM302.549 103.5V96.409H303.298C303.475 96.409 303.585 96.4953 303.627 96.668L303.718 97.396C303.979 97.074 304.273 96.8103 304.6 96.605C304.926 96.3997 305.304 96.297 305.734 96.297C306.21 96.297 306.595 96.43 306.889 96.696C307.187 96.962 307.402 97.3213 307.533 97.774C307.635 97.5173 307.766 97.2957 307.925 97.109C308.088 96.9223 308.27 96.7683 308.471 96.647C308.671 96.5257 308.884 96.437 309.108 96.381C309.336 96.325 309.567 96.297 309.801 96.297C310.174 96.297 310.505 96.3577 310.795 96.479C311.089 96.5957 311.336 96.7683 311.537 96.997C311.742 97.2257 311.898 97.508 312.006 97.844C312.113 98.1753 312.167 98.5557 312.167 98.985V103.5H310.914V98.985C310.914 98.4297 310.792 98.0097 310.55 97.725C310.307 97.4357 309.957 97.291 309.5 97.291C309.294 97.291 309.098 97.3283 308.912 97.403C308.73 97.473 308.569 97.578 308.429 97.718C308.289 97.858 308.177 98.0353 308.093 98.25C308.013 98.46 307.974 98.705 307.974 98.985V103.5H306.721V98.985C306.721 98.4157 306.606 97.991 306.378 97.711C306.149 97.431 305.815 97.291 305.377 97.291C305.069 97.291 304.784 97.375 304.523 97.543C304.261 97.7063 304.021 97.9303 303.802 98.215V103.5H302.549ZM317.049 96.297C317.567 96.297 318.034 96.3833 318.449 96.556C318.865 96.7287 319.219 96.9737 319.513 97.291C319.807 97.6083 320.031 97.9933 320.185 98.446C320.344 98.894 320.423 99.3957 320.423 99.951C320.423 100.511 320.344 101.015 320.185 101.463C320.031 101.911 319.807 102.294 319.513 102.611C319.219 102.928 318.865 103.173 318.449 103.346C318.034 103.514 317.567 103.598 317.049 103.598C316.527 103.598 316.055 103.514 315.635 103.346C315.22 103.173 314.865 102.928 314.571 102.611C314.277 102.294 314.051 101.911 313.892 101.463C313.738 101.015 313.661 100.511 313.661 99.951C313.661 99.3957 313.738 98.894 313.892 98.446C314.051 97.9933 314.277 97.6083 314.571 97.291C314.865 96.9737 315.22 96.7287 315.635 96.556C316.055 96.3833 316.527 96.297 317.049 96.297ZM317.049 102.625C317.749 102.625 318.272 102.392 318.617 101.925C318.963 101.454 319.135 100.798 319.135 99.958C319.135 99.1133 318.963 98.4553 318.617 97.984C318.272 97.5127 317.749 97.277 317.049 97.277C316.695 97.277 316.384 97.3377 316.118 97.459C315.857 97.5803 315.638 97.7553 315.46 97.984C315.288 98.2127 315.157 98.495 315.068 98.831C314.984 99.1623 314.942 99.538 314.942 99.958C314.942 100.798 315.115 101.454 315.46 101.925C315.81 102.392 316.34 102.625 317.049 102.625ZM323.18 97.438C323.334 97.2653 323.497 97.109 323.67 96.969C323.842 96.829 324.024 96.71 324.216 96.612C324.412 96.5093 324.617 96.4323 324.832 96.381C325.051 96.325 325.287 96.297 325.539 96.297C325.926 96.297 326.267 96.3623 326.561 96.493C326.859 96.619 327.107 96.801 327.303 97.039C327.503 97.2723 327.655 97.5547 327.758 97.886C327.86 98.2173 327.912 98.5837 327.912 98.985V103.5H326.659V98.985C326.659 98.4483 326.535 98.033 326.288 97.739C326.045 97.4403 325.674 97.291 325.175 97.291C324.806 97.291 324.461 97.3797 324.139 97.557C323.821 97.7343 323.527 97.9747 323.257 98.278V103.5H322.004V96.409H322.753C322.93 96.409 323.04 96.4953 323.082 96.668L323.18 97.438ZM331.892 103.612C331.332 103.612 330.9 103.456 330.597 103.143C330.298 102.83 330.149 102.38 330.149 101.792V97.452H329.295C329.22 97.452 329.157 97.431 329.106 97.389C329.054 97.3423 329.029 97.2723 329.029 97.179V96.682L330.191 96.535L330.478 94.344C330.492 94.274 330.522 94.218 330.569 94.176C330.62 94.1293 330.685 94.106 330.765 94.106H331.395V96.549H333.446V97.452H331.395V101.708C331.395 102.007 331.467 102.228 331.612 102.373C331.756 102.518 331.943 102.59 332.172 102.59C332.302 102.59 332.414 102.574 332.508 102.541C332.606 102.504 332.69 102.464 332.76 102.422C332.83 102.38 332.888 102.343 332.935 102.31C332.986 102.273 333.03 102.254 333.068 102.254C333.133 102.254 333.191 102.294 333.243 102.373L333.607 102.968C333.392 103.169 333.133 103.327 332.83 103.444C332.526 103.556 332.214 103.612 331.892 103.612ZM335.985 97.354C336.288 97.032 336.624 96.7753 336.993 96.584C337.362 96.3927 337.786 96.297 338.267 96.297C338.654 96.297 338.995 96.3623 339.289 96.493C339.588 96.619 339.835 96.801 340.031 97.039C340.232 97.2723 340.383 97.5547 340.486 97.886C340.589 98.2173 340.64 98.5837 340.64 98.985V103.5H339.387V98.985C339.387 98.4483 339.263 98.033 339.016 97.739C338.773 97.4403 338.402 97.291 337.903 97.291C337.534 97.291 337.189 97.3797 336.867 97.557C336.55 97.7343 336.256 97.9747 335.985 98.278V103.5H334.732V93.189H335.985V97.354Z" fill="#2B2B2B"/>
<path d="M358.604 95.5L363.604 100.5L368.604 95.5" stroke="#707070" stroke-width="1.5" stroke-linecap="round" stroke-linejoin="round"/>
<g clip-path="url(#clip1_78_2309)">
<rect x="86.6045" y="325" width="516" height="1" fill="#464E5F" fill-opacity="0.04"/>
<rect x="86.6045" y="284" width="516" height="1" fill="#464E5F" fill-opacity="0.04"/>
<rect x="86.6045" y="243" width="516" height="1" fill="#464E5F" fill-opacity="0.04"/>
<rect x="86.6045" y="202" width="516" height="1" fill="#464E5F" fill-opacity="0.04"/>
<rect x="86.6045" y="161" width="516" height="1" fill="#464E5F" fill-opacity="0.04"/>
</g>
<path d="M75.2656 370.704C75.2656 371.456 75.1836 372.108 75.0196 372.66C74.8596 373.208 74.6396 373.662 74.3596 374.022C74.0796 374.382 73.7476 374.65 73.3636 374.826C72.9836 375.002 72.5756 375.09 72.1396 375.09C71.6996 375.09 71.2896 375.002 70.9096 374.826C70.5336 374.65 70.2056 374.382 69.9256 374.022C69.6456 373.662 69.4256 373.208 69.2656 372.66C69.1056 372.108 69.0256 371.456 69.0256 370.704C69.0256 369.952 69.1056 369.3 69.2656 368.748C69.4256 368.196 69.6456 367.74 69.9256 367.38C70.2056 367.016 70.5336 366.746 70.9096 366.57C71.2896 366.394 71.6996 366.306 72.1396 366.306C72.5756 366.306 72.9836 366.394 73.3636 366.57C73.7476 366.746 74.0796 367.016 74.3596 367.38C74.6396 367.74 74.8596 368.196 75.0196 368.748C75.1836 369.3 75.2656 369.952 75.2656 370.704ZM74.1556 370.704C74.1556 370.048 74.0996 369.498 73.9876 369.054C73.8796 368.606 73.7316 368.246 73.5436 367.974C73.3596 367.702 73.1456 367.508 72.9016 367.392C72.6576 367.272 72.4036 367.212 72.1396 367.212C71.8756 367.212 71.6216 367.272 71.3776 367.392C71.1336 367.508 70.9196 367.702 70.7356 367.974C70.5516 368.246 70.4036 368.606 70.2916 369.054C70.1836 369.498 70.1296 370.048 70.1296 370.704C70.1296 371.36 70.1836 371.91 70.2916 372.354C70.4036 372.798 70.5516 373.156 70.7356 373.428C70.9196 373.7 71.1336 373.896 71.3776 374.016C71.6216 374.132 71.8756 374.19 72.1396 374.19C72.4036 374.19 72.6576 374.132 72.9016 374.016C73.1456 373.896 73.3596 373.7 73.5436 373.428C73.7316 373.156 73.8796 372.798 73.9876 372.354C74.0996 371.91 74.1556 371.36 74.1556 370.704Z" fill="#535353"/>
<path d="M59.1237 285.898V282.352C59.1237 282.248 59.1277 282.134 59.1357 282.01C59.1437 281.886 59.1557 281.76 59.1717 281.632L56.0397 285.898H59.1237ZM61.3617 285.898V286.51C61.3617 286.574 61.3417 286.628 61.3017 286.672C61.2657 286.716 61.2077 286.738 61.1277 286.738H60.0597V289H59.1237V286.738H55.3077C55.2277 286.738 55.1577 286.716 55.0977 286.672C55.0417 286.624 55.0057 286.566 54.9897 286.498L54.8817 285.952L59.0637 280.402H60.0597V285.898H61.3617ZM68.3046 284.704C68.3046 285.456 68.2226 286.108 68.0586 286.66C67.8986 287.208 67.6786 287.662 67.3986 288.022C67.1186 288.382 66.7866 288.65 66.4026 288.826C66.0226 289.002 65.6146 289.09 65.1786 289.09C64.7386 289.09 64.3286 289.002 63.9486 288.826C63.5726 288.65 63.2446 288.382 62.9646 288.022C62.6846 287.662 62.4646 287.208 62.3046 286.66C62.1446 286.108 62.0646 285.456 62.0646 284.704C62.0646 283.952 62.1446 283.3 62.3046 282.748C62.4646 282.196 62.6846 281.74 62.9646 281.38C63.2446 281.016 63.5726 280.746 63.9486 280.57C64.3286 280.394 64.7386 280.306 65.1786 280.306C65.6146 280.306 66.0226 280.394 66.4026 280.57C66.7866 280.746 67.1186 281.016 67.3986 281.38C67.6786 281.74 67.8986 282.196 68.0586 282.748C68.2226 283.3 68.3046 283.952 68.3046 284.704ZM67.1946 284.704C67.1946 284.048 67.1386 283.498 67.0266 283.054C66.9186 282.606 66.7706 282.246 66.5826 281.974C66.3986 281.702 66.1846 281.508 65.9406 281.392C65.6966 281.272 65.4426 281.212 65.1786 281.212C64.9146 281.212 64.6606 281.272 64.4166 281.392C64.1726 281.508 63.9586 281.702 63.7746 281.974C63.5906 282.246 63.4426 282.606 63.3306 283.054C63.2226 283.498 63.1686 284.048 63.1686 284.704C63.1686 285.36 63.2226 285.91 63.3306 286.354C63.4426 286.798 63.5906 287.156 63.7746 287.428C63.9586 287.7 64.1726 287.896 64.4166 288.016C64.6606 288.132 64.9146 288.19 65.1786 288.19C65.4426 288.19 65.6966 288.132 65.9406 288.016C66.1846 287.896 66.3986 287.7 66.5826 287.428C66.7706 287.156 66.9186 286.798 67.0266 286.354C67.1386 285.91 67.1946 285.36 67.1946 284.704ZM75.2656 284.704C75.2656 285.456 75.1836 286.108 75.0196 286.66C74.8596 287.208 74.6396 287.662 74.3596 288.022C74.0796 288.382 73.7476 288.65 73.3636 288.826C72.9836 289.002 72.5756 289.09 72.1396 289.09C71.6996 289.09 71.2896 289.002 70.9096 288.826C70.5336 288.65 70.2056 288.382 69.9256 288.022C69.6456 287.662 69.4256 287.208 69.2656 286.66C69.1056 286.108 69.0256 285.456 69.0256 284.704C69.0256 283.952 69.1056 283.3 69.2656 282.748C69.4256 282.196 69.6456 281.74 69.9256 281.38C70.2056 281.016 70.5336 280.746 70.9096 280.57C71.2896 280.394 71.6996 280.306 72.1396 280.306C72.5756 280.306 72.9836 280.394 73.3636 280.57C73.7476 280.746 74.0796 281.016 74.3596 281.38C74.6396 281.74 74.8596 282.196 75.0196 282.748C75.1836 283.3 75.2656 283.952 75.2656 284.704ZM74.1556 284.704C74.1556 284.048 74.0996 283.498 73.9876 283.054C73.8796 282.606 73.7316 282.246 73.5436 281.974C73.3596 281.702 73.1456 281.508 72.9016 281.392C72.6576 281.272 72.4036 281.212 72.1396 281.212C71.8756 281.212 71.6216 281.272 71.3776 281.392C71.1336 281.508 70.9196 281.702 70.7356 281.974C70.5516 282.246 70.4036 282.606 70.2916 283.054C70.1836 283.498 70.1296 284.048 70.1296 284.704C70.1296 285.36 70.1836 285.91 70.2916 286.354C70.4036 286.798 70.5516 287.156 70.7356 287.428C70.9196 287.7 71.1336 287.896 71.3776 288.016C71.6216 288.132 71.8756 288.19 72.1396 288.19C72.4036 288.19 72.6576 288.132 72.9016 288.016C73.1456 287.896 73.3596 287.7 73.5436 287.428C73.7316 287.156 73.8796 286.798 73.9876 286.354C74.0996 285.91 74.1556 285.36 74.1556 284.704Z" fill="#535353"/>
<path d="M60.6657 328.986C60.7817 328.986 60.8737 329.02 60.9417 329.088C61.0097 329.156 61.0437 329.244 61.0437 329.352V330H55.3077V329.634C55.3077 329.558 55.3237 329.48 55.3557 329.4C55.3877 329.32 55.4377 329.246 55.5057 329.178L58.2597 326.412C58.4877 326.18 58.6957 325.958 58.8837 325.746C59.0717 325.53 59.2317 325.314 59.3637 325.098C59.4957 324.882 59.5977 324.664 59.6697 324.444C59.7417 324.22 59.7777 323.982 59.7777 323.73C59.7777 323.478 59.7377 323.258 59.6577 323.07C59.5777 322.878 59.4677 322.72 59.3277 322.596C59.1917 322.472 59.0297 322.38 58.8417 322.32C58.6537 322.256 58.4517 322.224 58.2357 322.224C58.0157 322.224 57.8137 322.256 57.6297 322.32C57.4457 322.384 57.2817 322.474 57.1377 322.59C56.9977 322.702 56.8797 322.836 56.7837 322.992C56.6877 323.148 56.6197 323.32 56.5797 323.508C56.5317 323.648 56.4657 323.742 56.3817 323.79C56.3017 323.834 56.1877 323.846 56.0397 323.826L55.4817 323.73C55.5377 323.338 55.6457 322.992 55.8057 322.692C55.9697 322.388 56.1737 322.134 56.4177 321.93C56.6657 321.726 56.9477 321.572 57.2637 321.468C57.5797 321.36 57.9217 321.306 58.2897 321.306C58.6537 321.306 58.9937 321.36 59.3097 321.468C59.6257 321.576 59.8997 321.734 60.1317 321.942C60.3637 322.146 60.5457 322.396 60.6777 322.692C60.8097 322.988 60.8757 323.324 60.8757 323.7C60.8757 324.02 60.8277 324.318 60.7317 324.594C60.6357 324.866 60.5057 325.126 60.3417 325.374C60.1777 325.622 59.9877 325.864 59.7717 326.1C59.5597 326.336 59.3337 326.574 59.0937 326.814L56.8257 329.13C56.9857 329.086 57.1477 329.052 57.3117 329.028C57.4757 329 57.6337 328.986 57.7857 328.986H60.6657ZM68.3046 325.704C68.3046 326.456 68.2226 327.108 68.0586 327.66C67.8986 328.208 67.6786 328.662 67.3986 329.022C67.1186 329.382 66.7866 329.65 66.4026 329.826C66.0226 330.002 65.6146 330.09 65.1786 330.09C64.7386 330.09 64.3286 330.002 63.9486 329.826C63.5726 329.65 63.2446 329.382 62.9646 329.022C62.6846 328.662 62.4646 328.208 62.3046 327.66C62.1446 327.108 62.0646 326.456 62.0646 325.704C62.0646 324.952 62.1446 324.3 62.3046 323.748C62.4646 323.196 62.6846 322.74 62.9646 322.38C63.2446 322.016 63.5726 321.746 63.9486 321.57C64.3286 321.394 64.7386 321.306 65.1786 321.306C65.6146 321.306 66.0226 321.394 66.4026 321.57C66.7866 321.746 67.1186 322.016 67.3986 322.38C67.6786 322.74 67.8986 323.196 68.0586 323.748C68.2226 324.3 68.3046 324.952 68.3046 325.704ZM67.1946 325.704C67.1946 325.048 67.1386 324.498 67.0266 324.054C66.9186 323.606 66.7706 323.246 66.5826 322.974C66.3986 322.702 66.1846 322.508 65.9406 322.392C65.6966 322.272 65.4426 322.212 65.1786 322.212C64.9146 322.212 64.6606 322.272 64.4166 322.392C64.1726 322.508 63.9586 322.702 63.7746 322.974C63.5906 323.246 63.4426 323.606 63.3306 324.054C63.2226 324.498 63.1686 325.048 63.1686 325.704C63.1686 326.36 63.2226 326.91 63.3306 327.354C63.4426 327.798 63.5906 328.156 63.7746 328.428C63.9586 328.7 64.1726 328.896 64.4166 329.016C64.6606 329.132 64.9146 329.19 65.1786 329.19C65.4426 329.19 65.6966 329.132 65.9406 329.016C66.1846 328.896 66.3986 328.7 66.5826 328.428C66.7706 328.156 66.9186 327.798 67.0266 327.354C67.1386 326.91 67.1946 326.36 67.1946 325.704ZM75.2656 325.704C75.2656 326.456 75.1836 327.108 75.0196 327.66C74.8596 328.208 74.6396 328.662 74.3596 329.022C74.0796 329.382 73.7476 329.65 73.3636 329.826C72.9836 330.002 72.5756 330.09 72.1396 330.09C71.6996 330.09 71.2896 330.002 70.9096 329.826C70.5336 329.65 70.2056 329.382 69.9256 329.022C69.6456 328.662 69.4256 328.208 69.2656 327.66C69.1056 327.108 69.0256 326.456 69.0256 325.704C69.0256 324.952 69.1056 324.3 69.2656 323.748C69.4256 323.196 69.6456 322.74 69.9256 322.38C70.2056 322.016 70.5336 321.746 70.9096 321.57C71.2896 321.394 71.6996 321.306 72.1396 321.306C72.5756 321.306 72.9836 321.394 73.3636 321.57C73.7476 321.746 74.0796 322.016 74.3596 322.38C74.6396 322.74 74.8596 323.196 75.0196 323.748C75.1836 324.3 75.2656 324.952 75.2656 325.704ZM74.1556 325.704C74.1556 325.048 74.0996 324.498 73.9876 324.054C73.8796 323.606 73.7316 323.246 73.5436 322.974C73.3596 322.702 73.1456 322.508 72.9016 322.392C72.6576 322.272 72.4036 322.212 72.1396 322.212C71.8756 322.212 71.6216 322.272 71.3776 322.392C71.1336 322.508 70.9196 322.702 70.7356 322.974C70.5516 323.246 70.4036 323.606 70.2916 324.054C70.1836 324.498 70.1296 325.048 70.1296 325.704C70.1296 326.36 70.1836 326.91 70.2916 327.354C70.4036 327.798 70.5516 328.156 70.7356 328.428C70.9196 328.7 71.1336 328.896 71.3776 329.016C71.6216 329.132 71.8756 329.19 72.1396 329.19C72.4036 329.19 72.6576 329.132 72.9016 329.016C73.1456 328.896 73.3596 328.7 73.5436 328.428C73.7316 328.156 73.8796 327.798 73.9876 327.354C74.0996 326.91 74.1556 326.36 74.1556 325.704Z" fill="#535353"/>
<path d="M58.1785 245.559C58.4665 245.559 58.7265 245.513 58.9585 245.421C59.1945 245.329 59.3945 245.201 59.5585 245.037C59.7265 244.873 59.8545 244.679 59.9425 244.455C60.0345 244.231 60.0805 243.987 60.0805 243.723C60.0805 243.443 60.0365 243.191 59.9485 242.967C59.8605 242.739 59.7345 242.547 59.5705 242.391C59.4105 242.231 59.2185 242.109 58.9945 242.025C58.7705 241.941 58.5245 241.899 58.2565 241.899C57.9685 241.899 57.7085 241.949 57.4765 242.049C57.2445 242.145 57.0465 242.277 56.8825 242.445C56.7225 242.609 56.5985 242.801 56.5105 243.021C56.4265 243.237 56.3845 243.463 56.3845 243.699C56.3845 243.975 56.4245 244.227 56.5045 244.455C56.5845 244.683 56.7005 244.879 56.8525 245.043C57.0085 245.207 57.1965 245.335 57.4165 245.427C57.6405 245.515 57.8945 245.559 58.1785 245.559ZM57.5545 240.975C57.4785 241.071 57.4045 241.165 57.3325 241.257C57.2645 241.345 57.1985 241.433 57.1345 241.521C57.3385 241.381 57.5625 241.273 57.8065 241.197C58.0505 241.121 58.3165 241.083 58.6045 241.083C58.9525 241.083 59.2805 241.141 59.5885 241.257C59.8965 241.369 60.1645 241.535 60.3925 241.755C60.6245 241.971 60.8085 242.239 60.9445 242.559C61.0805 242.875 61.1485 243.237 61.1485 243.645C61.1485 244.041 61.0765 244.409 60.9325 244.749C60.7885 245.089 60.5865 245.385 60.3265 245.637C60.0705 245.889 59.7605 246.087 59.3965 246.231C59.0365 246.375 58.6385 246.447 58.2025 246.447C57.7705 246.447 57.3785 246.379 57.0265 246.243C56.6745 246.103 56.3745 245.907 56.1265 245.655C55.8825 245.399 55.6925 245.091 55.5565 244.731C55.4245 244.367 55.3585 243.961 55.3585 243.513C55.3585 243.137 55.4405 242.737 55.6045 242.313C55.7725 241.885 56.0385 241.429 56.4025 240.945L58.5865 238.011C58.6425 237.939 58.7185 237.879 58.8145 237.831C58.9145 237.779 59.0285 237.753 59.1565 237.753H60.1045L57.5545 240.975ZM68.2714 242.055C68.2714 242.807 68.1894 243.459 68.0254 244.011C67.8654 244.559 67.6454 245.013 67.3654 245.373C67.0854 245.733 66.7534 246.001 66.3694 246.177C65.9894 246.353 65.5814 246.441 65.1454 246.441C64.7054 246.441 64.2954 246.353 63.9154 246.177C63.5394 246.001 63.2114 245.733 62.9314 245.373C62.6514 245.013 62.4314 244.559 62.2714 244.011C62.1114 243.459 62.0314 242.807 62.0314 242.055C62.0314 241.303 62.1114 240.651 62.2714 240.099C62.4314 239.547 62.6514 239.091 62.9314 238.731C63.2114 238.367 63.5394 238.097 63.9154 237.921C64.2954 237.745 64.7054 237.657 65.1454 237.657C65.5814 237.657 65.9894 237.745 66.3694 237.921C66.7534 238.097 67.0854 238.367 67.3654 238.731C67.6454 239.091 67.8654 239.547 68.0254 240.099C68.1894 240.651 68.2714 241.303 68.2714 242.055ZM67.1614 242.055C67.1614 241.399 67.1054 240.849 66.9934 240.405C66.8854 239.957 66.7374 239.597 66.5494 239.325C66.3654 239.053 66.1514 238.859 65.9074 238.743C65.6634 238.623 65.4094 238.563 65.1454 238.563C64.8814 238.563 64.6274 238.623 64.3834 238.743C64.1394 238.859 63.9254 239.053 63.7414 239.325C63.5574 239.597 63.4094 239.957 63.2974 240.405C63.1894 240.849 63.1354 241.399 63.1354 242.055C63.1354 242.711 63.1894 243.261 63.2974 243.705C63.4094 244.149 63.5574 244.507 63.7414 244.779C63.9254 245.051 64.1394 245.247 64.3834 245.367C64.6274 245.483 64.8814 245.541 65.1454 245.541C65.4094 245.541 65.6634 245.483 65.9074 245.367C66.1514 245.247 66.3654 245.051 66.5494 244.779C66.7374 244.507 66.8854 244.149 66.9934 243.705C67.1054 243.261 67.1614 242.711 67.1614 242.055ZM75.2324 242.055C75.2324 242.807 75.1504 243.459 74.9864 244.011C74.8264 244.559 74.6064 245.013 74.3264 245.373C74.0464 245.733 73.7144 246.001 73.3304 246.177C72.9504 246.353 72.5424 246.441 72.1064 246.441C71.6664 246.441 71.2564 246.353 70.8764 246.177C70.5004 246.001 70.1724 245.733 69.8924 245.373C69.6124 245.013 69.3924 244.559 69.2324 244.011C69.0724 243.459 68.9924 242.807 68.9924 242.055C68.9924 241.303 69.0724 240.651 69.2324 240.099C69.3924 239.547 69.6124 239.091 69.8924 238.731C70.1724 238.367 70.5004 238.097 70.8764 237.921C71.2564 237.745 71.6664 237.657 72.1064 237.657C72.5424 237.657 72.9504 237.745 73.3304 237.921C73.7144 238.097 74.0464 238.367 74.3264 238.731C74.6064 239.091 74.8264 239.547 74.9864 240.099C75.1504 240.651 75.2324 241.303 75.2324 242.055ZM74.1224 242.055C74.1224 241.399 74.0664 240.849 73.9544 240.405C73.8464 239.957 73.6984 239.597 73.5104 239.325C73.3264 239.053 73.1124 238.859 72.8684 238.743C72.6244 238.623 72.3704 238.563 72.1064 238.563C71.8424 238.563 71.5884 238.623 71.3444 238.743C71.1004 238.859 70.8864 239.053 70.7024 239.325C70.5184 239.597 70.3704 239.957 70.2584 240.405C70.1504 240.849 70.0964 241.399 70.0964 242.055C70.0964 242.711 70.1504 243.261 70.2584 243.705C70.3704 244.149 70.5184 244.507 70.7024 244.779C70.8864 245.051 71.1004 245.247 71.3444 245.367C71.5884 245.483 71.8424 245.541 72.1064 245.541C72.3704 245.541 72.6244 245.483 72.8684 245.367C73.1124 245.247 73.3264 245.051 73.5104 244.779C73.6984 244.507 73.8464 244.149 73.9544 243.705C74.0664 243.261 74.1224 242.711 74.1224 242.055Z" fill="#535353"/>
<path d="M58.2237 205.244C58.5037 205.244 58.7537 205.206 58.9737 205.13C59.1977 205.05 59.3857 204.94 59.5377 204.8C59.6937 204.656 59.8117 204.486 59.8917 204.29C59.9757 204.09 60.0177 203.87 60.0177 203.63C60.0177 203.334 59.9677 203.082 59.8677 202.874C59.7717 202.662 59.6397 202.49 59.4717 202.358C59.3077 202.226 59.1177 202.13 58.9017 202.07C58.6857 202.006 58.4597 201.974 58.2237 201.974C57.9877 201.974 57.7617 202.006 57.5457 202.07C57.3297 202.13 57.1377 202.226 56.9697 202.358C56.8057 202.49 56.6737 202.662 56.5737 202.874C56.4777 203.082 56.4297 203.334 56.4297 203.63C56.4297 203.87 56.4697 204.09 56.5497 204.29C56.6337 204.486 56.7517 204.656 56.9037 204.8C57.0597 204.94 57.2477 205.05 57.4677 205.13C57.6917 205.206 57.9437 205.244 58.2237 205.244ZM58.2237 198.134C57.9677 198.134 57.7417 198.172 57.5457 198.248C57.3537 198.324 57.1917 198.428 57.0597 198.56C56.9317 198.692 56.8337 198.846 56.7657 199.022C56.7017 199.198 56.6697 199.386 56.6697 199.586C56.6697 199.782 56.6977 199.972 56.7537 200.156C56.8097 200.34 56.8997 200.504 57.0237 200.648C57.1477 200.788 57.3077 200.902 57.5037 200.99C57.7037 201.074 57.9437 201.116 58.2237 201.116C58.5037 201.116 58.7417 201.074 58.9377 200.99C59.1377 200.902 59.2997 200.788 59.4237 200.648C59.5477 200.504 59.6377 200.34 59.6937 200.156C59.7497 199.972 59.7777 199.782 59.7777 199.586C59.7777 199.386 59.7437 199.198 59.6757 199.022C59.6117 198.846 59.5137 198.692 59.3817 198.56C59.2537 198.428 59.0917 198.324 58.8957 198.248C58.7037 198.172 58.4797 198.134 58.2237 198.134ZM59.4537 201.518C59.9897 201.67 60.4017 201.924 60.6897 202.28C60.9777 202.636 61.1217 203.092 61.1217 203.648C61.1217 204.024 61.0497 204.364 60.9057 204.668C60.7657 204.968 60.5677 205.224 60.3117 205.436C60.0597 205.648 59.7557 205.812 59.3997 205.928C59.0437 206.04 58.6517 206.096 58.2237 206.096C57.7957 206.096 57.4037 206.04 57.0477 205.928C56.6917 205.812 56.3857 205.648 56.1297 205.436C55.8737 205.224 55.6757 204.968 55.5357 204.668C55.3957 204.364 55.3257 204.024 55.3257 203.648C55.3257 203.092 55.4697 202.636 55.7577 202.28C56.0457 201.924 56.4577 201.67 56.9937 201.518C56.5417 201.35 56.1997 201.1 55.9677 200.768C55.7397 200.432 55.6257 200.032 55.6257 199.568C55.6257 199.252 55.6877 198.956 55.8117 198.68C55.9357 198.404 56.1117 198.164 56.3397 197.96C56.5677 197.756 56.8397 197.596 57.1557 197.48C57.4757 197.364 57.8317 197.306 58.2237 197.306C58.6117 197.306 58.9657 197.364 59.2857 197.48C59.6057 197.596 59.8797 197.756 60.1077 197.96C60.3357 198.164 60.5117 198.404 60.6357 198.68C60.7597 198.956 60.8217 199.252 60.8217 199.568C60.8217 200.032 60.7057 200.432 60.4737 200.768C60.2457 201.1 59.9057 201.35 59.4537 201.518ZM68.3046 201.704C68.3046 202.456 68.2226 203.108 68.0586 203.66C67.8986 204.208 67.6786 204.662 67.3986 205.022C67.1186 205.382 66.7866 205.65 66.4026 205.826C66.0226 206.002 65.6146 206.09 65.1786 206.09C64.7386 206.09 64.3286 206.002 63.9486 205.826C63.5726 205.65 63.2446 205.382 62.9646 205.022C62.6846 204.662 62.4646 204.208 62.3046 203.66C62.1446 203.108 62.0646 202.456 62.0646 201.704C62.0646 200.952 62.1446 200.3 62.3046 199.748C62.4646 199.196 62.6846 198.74 62.9646 198.38C63.2446 198.016 63.5726 197.746 63.9486 197.57C64.3286 197.394 64.7386 197.306 65.1786 197.306C65.6146 197.306 66.0226 197.394 66.4026 197.57C66.7866 197.746 67.1186 198.016 67.3986 198.38C67.6786 198.74 67.8986 199.196 68.0586 199.748C68.2226 200.3 68.3046 200.952 68.3046 201.704ZM67.1946 201.704C67.1946 201.048 67.1386 200.498 67.0266 200.054C66.9186 199.606 66.7706 199.246 66.5826 198.974C66.3986 198.702 66.1846 198.508 65.9406 198.392C65.6966 198.272 65.4426 198.212 65.1786 198.212C64.9146 198.212 64.6606 198.272 64.4166 198.392C64.1726 198.508 63.9586 198.702 63.7746 198.974C63.5906 199.246 63.4426 199.606 63.3306 200.054C63.2226 200.498 63.1686 201.048 63.1686 201.704C63.1686 202.36 63.2226 202.91 63.3306 203.354C63.4426 203.798 63.5906 204.156 63.7746 204.428C63.9586 204.7 64.1726 204.896 64.4166 205.016C64.6606 205.132 64.9146 205.19 65.1786 205.19C65.4426 205.19 65.6966 205.132 65.9406 205.016C66.1846 204.896 66.3986 204.7 66.5826 204.428C66.7706 204.156 66.9186 203.798 67.0266 203.354C67.1386 202.91 67.1946 202.36 67.1946 201.704ZM75.2656 201.704C75.2656 202.456 75.1836 203.108 75.0196 203.66C74.8596 204.208 74.6396 204.662 74.3596 205.022C74.0796 205.382 73.7476 205.65 73.3636 205.826C72.9836 206.002 72.5756 206.09 72.1396 206.09C71.6996 206.09 71.2896 206.002 70.9096 205.826C70.5336 205.65 70.2056 205.382 69.9256 205.022C69.6456 204.662 69.4256 204.208 69.2656 203.66C69.1056 203.108 69.0256 202.456 69.0256 201.704C69.0256 200.952 69.1056 200.3 69.2656 199.748C69.4256 199.196 69.6456 198.74 69.9256 198.38C70.2056 198.016 70.5336 197.746 70.9096 197.57C71.2896 197.394 71.6996 197.306 72.1396 197.306C72.5756 197.306 72.9836 197.394 73.3636 197.57C73.7476 197.746 74.0796 198.016 74.3596 198.38C74.6396 198.74 74.8596 199.196 75.0196 199.748C75.1836 200.3 75.2656 200.952 75.2656 201.704ZM74.1556 201.704C74.1556 201.048 74.0996 200.498 73.9876 200.054C73.8796 199.606 73.7316 199.246 73.5436 198.974C73.3596 198.702 73.1456 198.508 72.9016 198.392C72.6576 198.272 72.4036 198.212 72.1396 198.212C71.8756 198.212 71.6216 198.272 71.3776 198.392C71.1336 198.508 70.9196 198.702 70.7356 198.974C70.5516 199.246 70.4036 199.606 70.2916 200.054C70.1836 200.498 70.1296 201.048 70.1296 201.704C70.1296 202.36 70.1836 202.91 70.2916 203.354C70.4036 203.798 70.5516 204.156 70.7356 204.428C70.9196 204.7 71.1336 204.896 71.3776 205.016C71.6216 205.132 71.8756 205.19 72.1396 205.19C72.4036 205.19 72.6576 205.132 72.9016 205.016C73.1456 204.896 73.3596 204.7 73.5436 204.428C73.7316 204.156 73.8796 203.798 73.9876 203.354C74.0996 202.91 74.1556 202.36 74.1556 201.704Z" fill="#535353"/>
<path d="M53.8908 163.184V164H49.2828V163.184H51.1248V157.322C51.1248 157.146 51.1308 156.968 51.1428 156.788L49.6128 158.102C49.5608 158.146 49.5088 158.174 49.4568 158.186C49.4048 158.194 49.3568 158.194 49.3128 158.186C49.2688 158.178 49.2268 158.162 49.1868 158.138C49.1508 158.114 49.1228 158.088 49.1028 158.06L48.7668 157.598L51.3288 155.384H52.1988V163.184H53.8908ZM61.3437 159.704C61.3437 160.456 61.2617 161.108 61.0977 161.66C60.9377 162.208 60.7177 162.662 60.4377 163.022C60.1577 163.382 59.8257 163.65 59.4417 163.826C59.0617 164.002 58.6537 164.09 58.2177 164.09C57.7777 164.09 57.3677 164.002 56.9877 163.826C56.6117 163.65 56.2837 163.382 56.0037 163.022C55.7237 162.662 55.5037 162.208 55.3437 161.66C55.1837 161.108 55.1037 160.456 55.1037 159.704C55.1037 158.952 55.1837 158.3 55.3437 157.748C55.5037 157.196 55.7237 156.74 56.0037 156.38C56.2837 156.016 56.6117 155.746 56.9877 155.57C57.3677 155.394 57.7777 155.306 58.2177 155.306C58.6537 155.306 59.0617 155.394 59.4417 155.57C59.8257 155.746 60.1577 156.016 60.4377 156.38C60.7177 156.74 60.9377 157.196 61.0977 157.748C61.2617 158.3 61.3437 158.952 61.3437 159.704ZM60.2337 159.704C60.2337 159.048 60.1777 158.498 60.0657 158.054C59.9577 157.606 59.8097 157.246 59.6217 156.974C59.4377 156.702 59.2237 156.508 58.9797 156.392C58.7357 156.272 58.4817 156.212 58.2177 156.212C57.9537 156.212 57.6997 156.272 57.4557 156.392C57.2117 156.508 56.9977 156.702 56.8137 156.974C56.6297 157.246 56.4817 157.606 56.3697 158.054C56.2617 158.498 56.2077 159.048 56.2077 159.704C56.2077 160.36 56.2617 160.91 56.3697 161.354C56.4817 161.798 56.6297 162.156 56.8137 162.428C56.9977 162.7 57.2117 162.896 57.4557 163.016C57.6997 163.132 57.9537 163.19 58.2177 163.19C58.4817 163.19 58.7357 163.132 58.9797 163.016C59.2237 162.896 59.4377 162.7 59.6217 162.428C59.8097 162.156 59.9577 161.798 60.0657 161.354C60.1777 160.91 60.2337 160.36 60.2337 159.704ZM68.3046 159.704C68.3046 160.456 68.2226 161.108 68.0586 161.66C67.8986 162.208 67.6786 162.662 67.3986 163.022C67.1186 163.382 66.7866 163.65 66.4026 163.826C66.0226 164.002 65.6146 164.09 65.1786 164.09C64.7386 164.09 64.3286 164.002 63.9486 163.826C63.5726 163.65 63.2446 163.382 62.9646 163.022C62.6846 162.662 62.4646 162.208 62.3046 161.66C62.1446 161.108 62.0646 160.456 62.0646 159.704C62.0646 158.952 62.1446 158.3 62.3046 157.748C62.4646 157.196 62.6846 156.74 62.9646 156.38C63.2446 156.016 63.5726 155.746 63.9486 155.57C64.3286 155.394 64.7386 155.306 65.1786 155.306C65.6146 155.306 66.0226 155.394 66.4026 155.57C66.7866 155.746 67.1186 156.016 67.3986 156.38C67.6786 156.74 67.8986 157.196 68.0586 157.748C68.2226 158.3 68.3046 158.952 68.3046 159.704ZM67.1946 159.704C67.1946 159.048 67.1386 158.498 67.0266 158.054C66.9186 157.606 66.7706 157.246 66.5826 156.974C66.3986 156.702 66.1846 156.508 65.9406 156.392C65.6966 156.272 65.4426 156.212 65.1786 156.212C64.9146 156.212 64.6606 156.272 64.4166 156.392C64.1726 156.508 63.9586 156.702 63.7746 156.974C63.5906 157.246 63.4426 157.606 63.3306 158.054C63.2226 158.498 63.1686 159.048 63.1686 159.704C63.1686 160.36 63.2226 160.91 63.3306 161.354C63.4426 161.798 63.5906 162.156 63.7746 162.428C63.9586 162.7 64.1726 162.896 64.4166 163.016C64.6606 163.132 64.9146 163.19 65.1786 163.19C65.4426 163.19 65.6966 163.132 65.9406 163.016C66.1846 162.896 66.3986 162.7 66.5826 162.428C66.7706 162.156 66.9186 161.798 67.0266 161.354C67.1386 160.91 67.1946 160.36 67.1946 159.704ZM75.2656 159.704C75.2656 160.456 75.1836 161.108 75.0196 161.66C74.8596 162.208 74.6396 162.662 74.3596 163.022C74.0796 163.382 73.7476 163.65 73.3636 163.826C72.9836 164.002 72.5756 164.09 72.1396 164.09C71.6996 164.09 71.2896 164.002 70.9096 163.826C70.5336 163.65 70.2056 163.382 69.9256 163.022C69.6456 162.662 69.4256 162.208 69.2656 161.66C69.1056 161.108 69.0256 160.456 69.0256 159.704C69.0256 158.952 69.1056 158.3 69.2656 157.748C69.4256 157.196 69.6456 156.74 69.9256 156.38C70.2056 156.016 70.5336 155.746 70.9096 155.57C71.2896 155.394 71.6996 155.306 72.1396 155.306C72.5756 155.306 72.9836 155.394 73.3636 155.57C73.7476 155.746 74.0796 156.016 74.3596 156.38C74.6396 156.74 74.8596 157.196 75.0196 157.748C75.1836 158.3 75.2656 158.952 75.2656 159.704ZM74.1556 159.704C74.1556 159.048 74.0996 158.498 73.9876 158.054C73.8796 157.606 73.7316 157.246 73.5436 156.974C73.3596 156.702 73.1456 156.508 72.9016 156.392C72.6576 156.272 72.4036 156.212 72.1396 156.212C71.8756 156.212 71.6216 156.272 71.3776 156.392C71.1336 156.508 70.9196 156.702 70.7356 156.974C70.5516 157.246 70.4036 157.606 70.2916 158.054C70.1836 158.498 70.1296 159.048 70.1296 159.704C70.1296 160.36 70.1836 160.91 70.2916 161.354C70.4036 161.798 70.5516 162.156 70.7356 162.428C70.9196 162.7 71.1336 162.896 71.3776 163.016C71.6216 163.132 71.8756 163.19 72.1396 163.19C72.4036 163.19 72.6576 163.132 72.9016 163.016C73.1456 162.896 73.3596 162.7 73.5436 162.428C73.7316 162.156 73.8796 161.798 73.9876 161.354C74.0996 160.91 74.1556 160.36 74.1556 159.704Z" fill="#535353"/>
<g clip-path="url(#clip2_78_2309)">
<mask id="mask0_78_2309" style="mask-type:luminance" maskUnits="userSpaceOnUse" x="81" y="163" width="385" height="212">
<rect x="81.6045" y="163" width="384" height="211.735" fill="white"/>
</mask>
<g mask="url(#mask0_78_2309)">
<path d="M91.6045 331.46C104.504 331.46 132.529 322.908 145.641 310.601C158.753 298.293 180.889 361 196.123 361C211.356 361 222.411 361 236.295 361C250.179 361 282.173 344.124 299.219 344.124C316.265 344.124 334.084 347.437 350.412 347.437C366.74 347.437 386.329 313.581 401.604 313.581" stroke="#007DD6" stroke-width="2" stroke-linecap="round"/>
<path fill-rule="evenodd" clip-rule="evenodd" d="M91.6349 330.648C104.616 330.648 132.82 322.025 146.015 309.614C159.21 297.204 180.056 360.437 195.386 360.437C210.717 360.437 224.304 360.437 238.276 360.437C252.249 360.437 275.384 344.059 292.538 344.059C309.692 344.059 343.028 350.184 359.517 344.059C376.006 337.934 388.232 312.619 403.604 312.619C403.504 318.015 403.604 393 403.604 393L91.6349 392.249C91.6349 392.249 91.5665 336.84 91.6349 330.648Z" fill="url(#paint0_linear_78_2309)"/>
<circle cx="327.104" cy="344.5" r="3.5" fill="#0095FF"/>
<circle cx="265.104" cy="353.5" r="3.5" fill="#0095FF"/>
<circle cx="213.104" cy="360.5" r="3.5" fill="#0095FF"/>
<circle cx="150.104" cy="307.5" r="3.5" fill="#0095FF"/>
<circle cx="92.1045" cy="330.5" r="3.5" fill="#0095FF"/>
</g>
</g>
<ellipse cx="327.721" cy="184.97" rx="10.8076" ry="10.875" fill="#DC3545"/>
<path d="M327.573 381.294L327.573 159.051" stroke="#DC3545" stroke-dasharray="2 2"/>
</g>
</g>
<defs>
<filter id="filter0_d_78_2309" x="15.6045" y="52" width="454.001" height="368" filterUnits="userSpaceOnUse" color-interpolation-filters="sRGB">
<feFlood flood-opacity="0" result="BackgroundImageFix"/>
<feColorMatrix in="SourceAlpha" type="matrix" values="0 0 0 0 0 0 0 0 0 0 0 0 0 0 0 0 0 0 127 0" result="hardAlpha"/>
<feOffset/>
<feGaussianBlur stdDeviation="4"/>
<feComposite in2="hardAlpha" operator="out"/>
<feColorMatrix type="matrix" values="0 0 0 0 0 0 0 0 0 0 0 0 0 0 0 0 0 0 0.08 0"/>
<feBlend mode="normal" in2="BackgroundImageFix" result="effect1_dropShadow_78_2309"/>
<feBlend mode="normal" in="SourceGraphic" in2="effect1_dropShadow_78_2309" result="shape"/>
</filter>
<linearGradient id="paint0_linear_78_2309" x1="91.6015" y1="308" x2="91.6015" y2="393" gradientUnits="userSpaceOnUse">
<stop stop-color="#009DFF" stop-opacity="0.31728"/>
<stop offset="1" stop-color="#0095FF" stop-opacity="0.01"/>
</linearGradient>
<clipPath id="clip0_78_2309">
<rect width="426.605" height="384" rx="12" fill="white"/>
</clipPath>
<clipPath id="clip1_78_2309">
<rect width="375" height="221" fill="white" transform="translate(86.6045 161)"/>
</clipPath>
<clipPath id="clip2_78_2309">
<rect width="375" height="219" fill="white" transform="translate(86.6045 163)"/>
</clipPath>
</defs>
</svg>
